<?xml version="1.0" encoding="UTF-8" standalone="no"?>
<!-- Created with Inkscape (http://www.inkscape.org/) -->

<svg
   xmlns:dc="http://purl.org/dc/elements/1.1/"
   xmlns:cc="http://creativecommons.org/ns#"
   xmlns:rdf="http://www.w3.org/1999/02/22-rdf-syntax-ns#"
   xmlns:svg="http://www.w3.org/2000/svg"
   xmlns="http://www.w3.org/2000/svg"
   xmlns:sodipodi="http://sodipodi.sourceforge.net/DTD/sodipodi-0.dtd"
   xmlns:inkscape="http://www.inkscape.org/namespaces/inkscape"
   version="1.1"
   id="svg2"
   xml:space="preserve"
   width="84.099998cm"
   height="84.099998cm"
   viewBox="0 0 3178.5828 3178.5827"
   sodipodi:docname="outWheel.svg"
   inkscape:version="0.92.2 (5c3e80d, 2017-08-06)"><metadata
     id="metadata8"><rdf:RDF><cc:Work
         rdf:about=""><dc:format>image/svg+xml</dc:format><dc:type
           rdf:resource="http://purl.org/dc/dcmitype/StillImage" /><dc:title></dc:title></cc:Work></rdf:RDF></metadata><defs
     id="defs6"><marker
       inkscape:stockid="Arrow1Lstart"
       orient="auto"
       refY="0"
       refX="0"
       id="Arrow1Lstart"
       style="overflow:visible"
       inkscape:isstock="true"><path
         id="path4965"
         d="M 0,0 5,-5 -12.5,0 5,5 Z"
         style="fill:#ececec;fill-opacity:1;fill-rule:evenodd;stroke:#000000;stroke-width:1.00000003pt;stroke-opacity:1"
         transform="matrix(0.8,0,0,0.8,10,0)"
         inkscape:connector-curvature="0" /></marker></defs><sodipodi:namedview
     pagecolor="#ffffff"
     bordercolor="#666666"
     borderopacity="1"
     objecttolerance="10"
     gridtolerance="10"
     guidetolerance="10"
     inkscape:pageopacity="0"
     inkscape:pageshadow="2"
     inkscape:window-width="1366"
     inkscape:window-height="709"
     id="namedview4"
     showgrid="false"
     inkscape:zoom="0.093826512"
     inkscape:cx="170.42878"
     inkscape:cy="959.46158"
     inkscape:window-x="0"
     inkscape:window-y="27"
     inkscape:window-maximized="1"
     inkscape:current-layer="g10"
     units="cm" /><g
     id="g10"
     inkscape:groupmode="layer"
     inkscape:label="outWheel"
     transform="matrix(1.3333333,0,0,-1.3333333,0,3178.5829)"><g
       id="g5307"
       transform="translate(1.4175121,-460.70058)"><path
         inkscape:connector-curvature="0"
         id="path16"
         style="fill:#ececec;fill-opacity:1;fill-rule:nonzero;stroke:#000000;stroke-width:22.5;stroke-linecap:butt;stroke-linejoin:miter;stroke-miterlimit:4;stroke-dasharray:none;stroke-opacity:1"
         d="m 2361.102,1652.6668 c 0,-310.449 -123.329,-608.179 -342.848,-827.703 -219.52,-219.519 -517.254,-342.843 -827.703,-342.843 -310.449,0 -608.184,123.324 -827.703,342.843 C 143.328,1044.4878 20,1342.2178 20,1652.6668 c 0,310.45 123.328,608.184 342.848,827.704 219.519,219.523 517.254,342.847 827.703,342.847 310.449,0 608.183,-123.324 827.703,-342.847 219.519,-219.52 342.848,-517.254 342.848,-827.704 z" /><path
         d="m 2183.1265,1560.0886 42.1254,11.1987 3.2351,49.4813 -40.2108,18.0247 1.2527,19.1498 130.2463,-59.4092 -1.2888,-19.6479 -136.6262,-38.146 z m 57.4719,15.333 39.4122,10.3074 c 7.6868,2.0129 14.671,3.548 20.9503,4.594 -5.9088,1.8265 -11.3534,3.8168 -16.3258,5.9743 l -41.4997,17.9276 z"
         style="fill:#000000;fill-opacity:1;fill-rule:nonzero;stroke:none;stroke-width:1.1295805"
         id="path18"
         inkscape:connector-curvature="0" /><path
         d="m 2277.5876,1350.9445 -14.1807,-41.5832 c -5.8908,-17.2611 -12.6592,-28.7196 -20.302,-34.372 -7.6066,-5.7405 -16.9527,-6.2839 -28.0361,-1.6379 -7.2723,3.0499 -12.474,8.0754 -15.6075,15.0776 -3.1549,6.9413 -3.8033,14.8484 -1.9451,23.7167 l -0.8517,0.3581 c -10.2024,-19.6265 -23.4874,-26.012 -39.8539,-19.1509 -11.2506,4.7171 -18.7126,12.457 -22.3837,23.214 -3.6892,10.696 -3.1719,22.9711 1.5577,36.8356 l 16.9877,49.8021 z m -58.8748,4.4913 -9.1553,-26.84 c -3.3537,-9.8308 -4.2269,-17.6373 -2.6296,-23.4219 1.5791,-5.8455 5.9743,-10.2803 13.1923,-13.3076 6.8182,-2.8589 12.5316,-2.4839 17.1426,1.1296 4.5894,3.548 8.6661,10.5503 12.2356,21.0125 l 8.5114,24.9479 z m -13.2941,5.5778 -45.007,18.8719 -9.8973,-29.0166 c -6.6849,-19.5904 -2.2411,-32.6562 13.3301,-39.1818 14.4327,-6.0534 25.1287,1.1251 32.0959,21.5366 z"
         style="fill:#000000;fill-opacity:1;fill-rule:nonzero;stroke:none;stroke-width:1.1295805"
         id="path20"
         inkscape:connector-curvature="0" /><path
         d="m 2017.8463,1087.253 -11.8957,9.6862 c 2.3609,10.2803 7.3514,21.1751 14.976,32.6866 11.1106,16.7766 24.4136,25.707 39.9104,26.7971 15.491,1.09 32.0778,-5.5598 49.758,-19.9529 16.9437,-13.7979 27.1415,-29.5815 30.5958,-47.3498 3.4554,-17.7739 -0.392,-35.0746 -11.5375,-51.9076 -7.9116,-11.9453 -16.9042,-20.6284 -26.9778,-26.047 l -7.2497,15.682 c 9.3586,5.2503 16.7495,11.9746 22.1805,20.1731 7.7308,11.6709 10.0036,24.1539 6.8227,37.4445 -3.1335,13.2455 -11.3365,25.2744 -24.6091,36.0799 -14.0531,11.4416 -26.9326,16.9178 -38.6441,16.423 -11.6618,-0.5377 -21.6427,-7.0734 -29.9508,-19.6174 -4.6731,-7.0554 -9.1338,-17.0894 -13.3787,-30.0977 z"
         style="fill:#000000;fill-opacity:1;fill-rule:nonzero;stroke:none;stroke-width:1.1295805"
         id="path22"
         inkscape:connector-curvature="0" /><path
         d="m 1910.6107,992.0418 84.9083,-113.83574 -24.016,-22.0223 c -14.8393,-13.60805 -30.0401,-19.28646 -45.5978,-17.03181 -15.6029,2.2151 -29.97,12.11588 -43.0969,29.71248 -13.974,18.73974 -20.398,37.02087 -19.2639,54.84227 1.133,17.82703 9.7777,34.14383 25.9273,48.9515 z m 62.5426,-113.49573 -66.3855,88.99851 -6.7379,-6.18219 c -24.9073,-22.83899 -26.1521,-49.28699 -3.7322,-79.34399 21.8371,-29.27647 44.2954,-33.33166 67.3773,-12.16558 z"
         style="fill:#000000;fill-opacity:1;fill-rule:nonzero;stroke:none;stroke-width:1.1295805"
         id="path24"
         inkscape:connector-curvature="0" /><path
         d="m 1653.508,805.9965 68.5644,38.18999 59.8113,-132.00278 -68.5701,-38.18886 -6.7063,14.80767 53.4167,29.75315 -18.4878,40.81062 -50.2449,-27.98762 -6.6272,14.62694 50.2448,27.98762 -21.2722,46.94875 -53.4213,-29.75315 z"
         style="fill:#000000;fill-opacity:1;fill-rule:nonzero;stroke:none;stroke-width:1.1295805"
         id="path26"
         inkscape:connector-curvature="0" /><path
         d="m 1496.7922,743.89216 16.4094,4.72052 33.4774,-142.98456 -74.1818,-21.35133 -3.7547,16.03892 57.7713,16.63081 -11.8121,50.46514 -54.4265,-15.6639 -3.7559,16.03892 54.4277,15.66389 z"
         style="fill:#000000;fill-opacity:1;fill-rule:nonzero;stroke:none;stroke-width:1.1295805"
         id="path28"
         inkscape:connector-curvature="0" /><path
         d="m 1258.1062,623.44161 -38.4057,-2.22415 -3.4102,72.35076 c 11.5951,5.72698 24.2148,8.98808 37.8669,9.78217 15.8977,0.91835 28.6496,-5.056 38.26,-17.91853 9.5529,-12.93709 14.8879,-31.31537 16.013,-55.12918 1.1115,-23.61049 -2.9347,-42.39429 -12.1295,-56.35138 -9.1959,-14.02262 -22.4063,-21.53207 -39.6369,-22.52949 -11.6494,-0.67549 -22.2833,1.61079 -31.8971,6.85317 l 5.78,16.72683 c 9.1248,-5.14072 17.7514,-7.46992 25.8832,-7.00227 11.6483,0.67549 20.4692,6.45103 26.4695,17.31872 5.9969,10.80105 8.5599,25.52175 7.6823,44.15531 -1.8616,39.55226 -14.7467,58.63652 -38.6531,57.25504 -5.8863,-0.34339 -11.9657,-1.67178 -18.245,-3.99306 l 2.0739,-43.99152 21.5682,1.24819 z"
         style="fill:#000000;fill-opacity:1;fill-rule:nonzero;stroke:none;stroke-width:1.1295805"
         id="path30"
         inkscape:connector-curvature="0" /><path
         d="m 993.21056,720.13144 16.86464,-2.74036 -9.0186,-68.18148 52.7458,-8.57691 9.0186,68.18035 16.8601,-2.74036 -19.3351,-146.16094 -16.8601,2.74375 8.1454,61.58021 -52.74573,8.57804 -8.1454,-61.58021 -16.86012,2.74036 z"
         style="fill:#000000;fill-opacity:1;fill-rule:nonzero;stroke:none;stroke-width:1.1295805"
         id="path32"
         inkscape:connector-curvature="0" /><path
         d="m 786.78424,787.3234 66.38997,-27.01278 -3.86091,-11.66631 -25.86626,8.37019 -36.9226,-111.55059 24.60791,-12.16445 -3.8609,-11.66744 -66.38997,27.01279 3.86543,11.66743 25.77815,-8.33517 36.9226,111.55059 -24.52432,12.12944 z"
         style="fill:#000000;fill-opacity:1;fill-rule:nonzero;stroke:none;stroke-width:1.1295805"
         id="path34"
         inkscape:connector-curvature="0" /><path
         d="m 654.35449,854.31769 -8.14993,-14.12879 c -6.26126,9.39811 -13.15735,16.76749 -20.68036,22.10137 -8.23803,5.84219 -16.031,8.21205 -23.3778,7.10394 -7.37729,-1.1646 -13.47589,-5.91675 -18.28452,-14.25644 l -49.74107,-86.22766 -14.27903,10.12669 49.63942,86.05596 c 7.07343,12.25708 16.3134,19.45816 27.71877,21.60323 11.32292,2.12587 23.04683,-1.11264 35.17627,-9.71665 11.10603,-7.87657 18.43475,-15.43007 21.97825,-22.66165 z"
         style="fill:#000000;fill-opacity:1;fill-rule:nonzero;stroke:none;stroke-width:1.1295805"
         id="path36"
         inkscape:connector-curvature="0" /><path
         d="m 409.66815,1082.5856 13.35164,-15.342 -17.31421,-81.69237 16.33486,-2.18348 38.30408,40.96875 11.76797,-13.5279 -95.89122,-102.55344 -11.76797,13.52334 47.94617,51.27731 -18.67422,-2.98322 -65.58571,-6.5527 -13.22399,15.20076 74.74208,6.79556 z"
         style="fill:#000000;fill-opacity:1;fill-rule:nonzero;stroke:none;stroke-width:1.1295805"
         id="path38"
         inkscape:connector-curvature="0" /><path
         d="m 330.12083,1204.8932 -116.33324,-72.0063 -8.30467,16.4976 103.12279,63.8303 -28.20902,56.0204 13.21158,8.1759 z"
         style="fill:#000000;fill-opacity:1;fill-rule:nonzero;stroke:none;stroke-width:1.1295805"
         id="path40"
         inkscape:connector-curvature="0" /><path
         d="m 234.23413,1461.0391 -107.94949,-56.4835 0.16266,-0.7896 c 15.50123,5.2153 27.39233,8.8864 35.67893,11.0089 l 77.60557,19.8772 3.09844,-14.8653 -129.81365,-33.2514 -5.06617,24.3164 100.74954,51.5236 -0.12425,0.5919 -110.967732,-2.4975 -5.166701,24.8067 129.813653,33.2515 3.13684,-15.0596 -78.75774,-20.1777 c -6.03987,-1.5441 -17.70617,-4.0507 -35.00344,-7.514 l 0.16379,-0.7861 119.28031,1.2052 z"
         style="fill:#000000;fill-opacity:1;fill-rule:nonzero;stroke:none;stroke-width:1.1295805"
         id="path42"
         inkscape:connector-curvature="0" /><path
         d="m 217.10065,1763.7791 -1.23915,-21.6823 -113.39068,-50.752 -0.044,-0.8066 c 16.86351,0.022 29.54079,-0.2609 38.0262,-0.8517 l 72.12484,-5.0707 -0.9929,-17.3401 -132.96405,9.3405 1.226724,21.4801 112.830406,50.5882 0.035,0.6043 c -18.4212,0.3491 -30.69635,0.7422 -36.82094,1.1692 l -72.760795,5.1147 1.005326,17.5435 z"
         style="fill:#000000;fill-opacity:1;fill-rule:nonzero;stroke:none;stroke-width:1.1295805"
         id="path44"
         inkscape:connector-curvature="0" /><path
         d="m 262.30194,1956.995 c -11.16364,-33.631 -38.26905,-41.6623 -81.31624,-24.0962 -42.7614,17.4509 -58.54051,43.0562 -47.33281,76.8114 5.37455,16.1847 15.07312,26.2933 29.10025,30.3315 13.99664,4.1207 31.27922,1.9858 51.86356,-6.416 20.58435,-8.3973 35.01248,-19.2379 43.29005,-32.524 8.28208,-13.2861 9.74263,-27.9876 4.39519,-44.1067 z m -13.94354,5.6874 c 3.6316,10.9389 2.15298,20.6239 -4.43473,29.0517 -6.56512,8.4944 -18.40426,16.2332 -35.5061,23.214 -17.27468,7.0463 -30.82061,9.6319 -40.63892,7.7523 -9.85333,-1.7915 -16.55513,-8.0302 -20.09863,-18.7126 -7.07343,-21.3039 6.15509,-38.7988 39.67652,-52.4769 33.64003,-13.7278 53.97248,-10.0036 61.00186,11.1715 z"
         style="fill:#000000;fill-opacity:1;fill-rule:nonzero;stroke:none;stroke-width:1.1295805"
         id="path46"
         inkscape:connector-curvature="0" /><path
         d="m 310.29556,2188.6426 42.04638,-33.6491 -9.92337,-15.2403 -108.02517,86.4615 21.54562,33.0978 c 18.27661,28.0712 37.95955,33.6705 59.04317,16.798 10.78749,-8.6356 16.74038,-19.1724 17.85641,-31.6102 1.15217,-12.3903 -2.96967,-25.7906 -12.35422,-40.2108 z m -11.67534,9.3416 9.06714,13.93 c 7.04293,10.8146 10.29951,19.9619 9.77426,27.4409 -0.48572,7.5365 -4.50138,14.3231 -12.03681,20.3539 -13.74474,11.001 -26.62534,7.2677 -38.64408,-11.1941 l -10.71859,-16.4671 z"
         style="fill:#000000;fill-opacity:1;fill-rule:nonzero;stroke:none;stroke-width:1.1295805"
         id="path48"
         inkscape:connector-curvature="0" /><path
         d="m 533.16292,2375.6943 c 10.9863,-5.6038 23.55289,-7.5851 37.69523,-5.9393 l -0.12312,-18.8538 c -17.65873,-1.3985 -33.10236,1.8175 -46.33087,9.6454 -1.43796,-1.866 -3.0928,-3.6711 -4.95096,-5.4005 -24.75362,-23.0423 -51.87711,-15.0912 -81.37384,23.8624 -29.29793,38.6881 -31.52208,69.6014 -6.67583,92.7307 11.90917,11.0891 24.85981,14.5218 38.84289,10.2995 13.99098,-4.1264 28.04071,-15.5013 42.14239,-34.1258 20.54933,-27.137 27.47253,-51.2061 20.77411,-72.2186 z m -23.26258,-7.9375 c 8.04826,7.497 11.10152,16.7144 9.1609,27.6611 -1.89769,10.9875 -8.70229,24.2194 -20.42169,39.6991 -11.838,15.6289 -22.43685,25.3309 -31.79995,29.1082 -9.35405,3.8654 -17.96258,2.1405 -25.82559,-5.1803 -15.68197,-14.5964 -12.03681,-37.0592 10.9332,-67.3953 23.04684,-30.4365 42.36379,-38.4012 57.95313,-23.8928 z"
         style="fill:#000000;fill-opacity:1;fill-rule:nonzero;stroke:none;stroke-width:1.1295805"
         id="path50"
         inkscape:connector-curvature="0" /><path
         d="m 659.89169,2536.3116 25.04506,-54.3441 -15.17366,-8.595 -60.62232,131.5431 28.96696,16.4139 c 28.13333,15.9384 47.93714,11.4596 59.40916,-13.4352 7.93304,-17.2137 5.53268,-33.3983 -7.20108,-48.555 l 59.37753,-40.6819 -17.77282,-10.0691 -53.44836,38.2555 z m -6.5527,14.2158 13.30872,7.5411 c 9.25239,5.2424 15.15671,11.0846 17.71069,17.5266 2.55963,6.4419 1.84913,13.9785 -2.13039,22.6175 -3.90044,8.4595 -8.86946,13.3212 -14.90933,14.5874 -6.04551,1.2663 -13.87803,-0.8291 -23.50996,-6.2827 l -12.90207,-7.3118 z"
         style="fill:#000000;fill-opacity:1;fill-rule:nonzero;stroke:none;stroke-width:1.1295805"
         id="path52"
         inkscape:connector-curvature="0" /><path
         d="m 870.3427,2574.0238 -4.17832,17.3809 c 13.7357,-1.9373 26.55757,-1.1477 38.47578,2.3777 20.54481,6.0715 28.94098,16.9178 25.18625,32.5376 -1.62772,6.7684 -4.96338,11.3624 -10.00695,13.7752 -4.98597,2.432 -14.39425,4.2845 -28.21805,5.5689 -13.35164,1.1431 -23.49189,4.2099 -30.41057,9.2049 -6.88253,5.0786 -11.58724,12.8885 -14.12427,23.4343 -2.72229,11.3263 -1.09344,21.2892 4.88995,29.8853 6.02292,8.6831 15.6108,14.9669 28.75912,18.8538 13.44088,3.9716 26.26275,5.0436 38.46335,3.208 l -1.787,-17.6756 c -12.55303,1.7293 -23.73023,1.1465 -33.53386,-1.752 -17.20012,-5.0831 -24.16285,-14.4293 -20.89272,-28.0328 1.59723,-6.6363 4.78716,-11.4099 9.56981,-14.3175 4.84477,-2.8905 13.84188,-4.8673 26.98681,-5.9348 15.81864,-1.456 26.87159,-4.5364 33.15431,-9.2309 6.32791,-4.6155 10.64291,-11.707 12.94161,-21.2723 3.00581,-12.4965 1.28885,-23.5314 -5.15315,-33.1023 -6.39342,-9.4907 -17.07587,-16.4456 -32.04733,-20.8713 -15.55432,-4.5974 -28.24855,-5.9427 -38.07477,-4.0371 z"
         style="fill:#000000;fill-opacity:1;fill-rule:nonzero;stroke:none;stroke-width:1.1295805"
         id="path54"
         inkscape:connector-curvature="0" /><path
         d="m 1142.2361,2621.2278 -17.0103,-1.1024 -6.9052,130.9251 -38.0262,-2.4625 -0.8731,16.5428 92.9735,6.0274 0.8743,-16.5427 -37.9381,-2.4614 z"
         style="fill:#000000;fill-opacity:1;fill-rule:nonzero;stroke:none;stroke-width:1.1295805"
         id="path56"
         inkscape:connector-curvature="0" /><path
         d="m 1419.8045,2750.3886 -11.9938,-94.8622 c -2.1926,-17.3413 -7.6642,-30.0265 -16.4095,-38.0578 -8.7407,-8.0257 -20.4555,-10.8982 -35.1356,-8.6176 -29.0607,4.5184 -41.3144,24.7898 -36.7565,60.8121 l 11.9182,94.259 16.7856,-2.6082 -11.7906,-93.2616 c -3.2645,-25.8165 4.3376,-40.1565 22.8085,-43.0291 17.7468,-2.7584 28.4157,8.8108 31.9942,34.7166 l 11.794,93.257 z"
         style="fill:#000000;fill-opacity:1;fill-rule:nonzero;stroke:none;stroke-width:1.1295805"
         id="path58"
         inkscape:connector-curvature="0" /><path
         d="m 1651.9198,2677.4911 17.0668,-6.8001 -87.0037,-122.2985 -16.0389,6.3889 3.3086,155.6618 16.807,-6.6984 -3.2781,-98.2294 c -0.2654,-8.9836 -1.1826,-20.5708 -2.7493,-34.7651 4.7521,8.4854 10.9038,18.2009 18.4528,29.1488 z"
         style="fill:#000000;fill-opacity:1;fill-rule:nonzero;stroke:none;stroke-width:1.1295805"
         id="path60"
         inkscape:connector-curvature="0" /><path
         d="m 1817.2441,2534.1451 13.6475,-9.5314 -14.1197,-52.3538 c -3.9535,-14.671 -7.0723,-24.713 -9.3541,-30.1237 1.8175,2.9483 13.5109,19.4243 35.0701,49.4282 l 37.5936,52.9141 13.1099,-9.1519 -85.4166,-114.9348 -14.6484,10.2329 15.2087,58.6365 c 2.4093,9.3021 5.2774,18.524 8.6051,27.6612 -7.2451,-8.7091 -13.5154,-15.6368 -18.8064,-20.782 l -40.0956,-41.0174 -14.654,10.2273 55.3415,135.9337 13.1088,-9.1508 -25.4065,-61.4254 c -4.5184,-10.8598 -9.606,-22.3499 -15.272,-34.4748 -5.6648,-12.1249 -9.1292,-19.3 -10.391,-21.5242 6.1201,7.749 12.9687,15.3827 20.5494,22.9102 z"
         style="fill:#000000;fill-opacity:1;fill-rule:nonzero;stroke:none;stroke-width:1.1295805"
         id="path62"
         inkscape:connector-curvature="0" /><path
         d="m 1984.7089,2247.8179 -13.4578,15.2279 18.7002,70.5231 -64.6776,-18.4788 -12.0548,13.6385 78.6255,21.3254 18.5274,79.8116 12.6897,-14.3626 -15.2798,-63.4192 57.6877,15.4165 12.1825,-13.7842 -71.9622,-18.4698 z"
         style="fill:#000000;fill-opacity:1;fill-rule:nonzero;stroke:none;stroke-width:1.1295805"
         id="path64"
         inkscape:connector-curvature="0" /><path
         d="m 2141.0281,2127.3809 75.7034,3.4949 9.0637,-17.6452 -92.6786,-1.8931 -45.0601,-28.4519 -8.4324,16.4196 44.266,27.9526 49.5468,87.9084 9.1564,-17.8213 z"
         style="fill:#000000;fill-opacity:1;fill-rule:nonzero;stroke:none;stroke-width:1.1295805"
         id="path66"
         inkscape:connector-curvature="0" /><path
         d="m 2177.2278,1811.1469 -21.793,100.4005 12.849,3.4238 118.8883,-50.6854 -16.4625,75.8366 14.706,3.9265 20.9199,-96.3713 -12.849,-3.4283 -118.8884,50.6899 17.3357,-79.8647 z"
         style="fill:#000000;fill-opacity:1;fill-rule:nonzero;stroke:none;stroke-width:1.1295805"
         id="path68"
         inkscape:connector-curvature="0" /><path
         inkscape:connector-curvature="0"
         id="path72"
         style="fill:#000000;fill-opacity:1;fill-rule:evenodd;stroke:#000000;stroke-width:27.31344795;stroke-linecap:butt;stroke-linejoin:miter;stroke-miterlimit:4;stroke-dasharray:none;stroke-opacity:1"
         d="m 1207.2611,1653.6136 1157.3868,78.2063" /><path
         inkscape:connector-curvature="0"
         id="path76"
         style="fill:#000000;fill-opacity:1;fill-rule:evenodd;stroke:#000000;stroke-width:27.08681107;stroke-linecap:butt;stroke-linejoin:miter;stroke-miterlimit:4;stroke-dasharray:none;stroke-opacity:1"
         d="M 1207.0075,1650.0533 2340.0007,1450.6768" /><path
         inkscape:connector-curvature="0"
         id="path80"
         style="fill:#000000;fill-opacity:1;fill-rule:evenodd;stroke:#000000;stroke-width:27.05389023;stroke-linecap:butt;stroke-linejoin:miter;stroke-miterlimit:4;stroke-dasharray:none;stroke-opacity:1"
         d="M 1205.7561,1646.1839 2256.8364,1182.0258" /><path
         inkscape:connector-curvature="0"
         id="path84"
         style="fill:#000000;fill-opacity:1;fill-rule:evenodd;stroke:#000000;stroke-width:27.26658821;stroke-linecap:butt;stroke-linejoin:miter;stroke-miterlimit:4;stroke-dasharray:none;stroke-opacity:1"
         d="M 1203.6907,1642.5844 2120.2963,934.85832" /><path
         inkscape:connector-curvature="0"
         id="path88"
         style="fill:#000000;fill-opacity:1;fill-rule:evenodd;stroke:#000000;stroke-width:27.16013145;stroke-linecap:butt;stroke-linejoin:miter;stroke-miterlimit:4;stroke-dasharray:none;stroke-opacity:1"
         d="M 1200.777,1639.7078 1918.5688,736.72639" /><path
         inkscape:connector-curvature="0"
         id="path92"
         style="fill:#000000;fill-opacity:1;fill-rule:evenodd;stroke:#000000;stroke-width:27.18595886;stroke-linecap:butt;stroke-linejoin:miter;stroke-miterlimit:4;stroke-dasharray:none;stroke-opacity:1"
         d="M 1197.3148,1637.532 1678.61,588.01996" /><path
         inkscape:connector-curvature="0"
         id="path96"
         style="fill:#000000;fill-opacity:1;fill-rule:evenodd;stroke:#000000;stroke-width:27.12578583;stroke-linecap:butt;stroke-linejoin:miter;stroke-miterlimit:4;stroke-dasharray:none;stroke-opacity:1"
         d="M 1193.4152,1636.2542 1409.0837,504.56349" /><path
         inkscape:connector-curvature="0"
         id="path100"
         style="fill:#000000;fill-opacity:1;fill-rule:evenodd;stroke:#000000;stroke-width:27.18680191;stroke-linecap:butt;stroke-linejoin:miter;stroke-miterlimit:4;stroke-dasharray:none;stroke-opacity:1"
         d="M 1189.0984,1635.929 1127.5346,482.92317" /><path
         inkscape:connector-curvature="0"
         id="path104"
         style="fill:#000000;fill-opacity:1;fill-rule:evenodd;stroke:#000000;stroke-width:27.14839554;stroke-linecap:butt;stroke-linejoin:miter;stroke-miterlimit:4;stroke-dasharray:none;stroke-opacity:1"
         d="M 1185.93,1636.7057 850.70189,533.49901" /><path
         inkscape:connector-curvature="0"
         id="path108"
         style="fill:#000000;fill-opacity:1;fill-rule:evenodd;stroke:#000000;stroke-width:27.27253914;stroke-linecap:butt;stroke-linejoin:miter;stroke-miterlimit:4;stroke-dasharray:none;stroke-opacity:1"
         d="M 1182.1552,1638.3653 589.95969,642.90766" /><path
         inkscape:connector-curvature="0"
         id="path112"
         style="fill:#000000;fill-opacity:1;fill-rule:evenodd;stroke:#000000;stroke-width:27.14716339;stroke-linecap:butt;stroke-linejoin:miter;stroke-miterlimit:4;stroke-dasharray:none;stroke-opacity:1"
         d="M 1178.9704,1640.9161 369.49469,819.89724" /><path
         inkscape:connector-curvature="0"
         id="path116"
         style="fill:#000000;fill-opacity:1;fill-rule:evenodd;stroke:#000000;stroke-width:27.31377602;stroke-linecap:butt;stroke-linejoin:miter;stroke-miterlimit:4;stroke-dasharray:none;stroke-opacity:1"
         d="M 1176.3613,1644.0493 187.89892,1036.9004" /><path
         inkscape:connector-curvature="0"
         id="path120"
         style="fill:#000000;fill-opacity:1;fill-rule:evenodd;stroke:#000000;stroke-width:27.27205086;stroke-linecap:butt;stroke-linejoin:miter;stroke-miterlimit:4;stroke-dasharray:none;stroke-opacity:1"
         d="M 1174.6439,1647.76 71.289174,1295.3484" /><path
         inkscape:connector-curvature="0"
         id="path124"
         style="fill:#000000;fill-opacity:1;fill-rule:evenodd;stroke:#000000;stroke-width:27.21331024;stroke-linecap:butt;stroke-linejoin:miter;stroke-miterlimit:4;stroke-dasharray:none;stroke-opacity:1"
         d="M 1173.84,1651.7706 20.700606,1573.8058" /><path
         inkscape:connector-curvature="0"
         id="path128"
         style="fill:#000000;fill-opacity:1;fill-rule:evenodd;stroke:#000000;stroke-width:27.14114189;stroke-linecap:butt;stroke-linejoin:miter;stroke-miterlimit:4;stroke-dasharray:none;stroke-opacity:1"
         d="M 1174.0854,1655.3087 38.816733,1855.0426" /><path
         inkscape:connector-curvature="0"
         id="path132"
         style="fill:#000000;fill-opacity:1;fill-rule:evenodd;stroke:#000000;stroke-width:27.26471901;stroke-linecap:butt;stroke-linejoin:miter;stroke-miterlimit:4;stroke-dasharray:none;stroke-opacity:1"
         d="M 1175.2989,1659.2508 116.01619,2126.9877" /><path
         inkscape:connector-curvature="0"
         id="path136"
         style="fill:#000000;fill-opacity:1;fill-rule:evenodd;stroke:#000000;stroke-width:27.23113441;stroke-linecap:butt;stroke-linejoin:miter;stroke-miterlimit:4;stroke-dasharray:none;stroke-opacity:1"
         d="M 1177.9175,1662.7359 262.481,2369.5105" /><path
         inkscape:connector-curvature="0"
         id="path140"
         style="fill:#000000;fill-opacity:1;fill-rule:evenodd;stroke:#000000;stroke-width:27.16537094;stroke-linecap:butt;stroke-linejoin:miter;stroke-miterlimit:4;stroke-dasharray:none;stroke-opacity:1"
         d="M 1180.3186,1665.6282 462.35774,2568.757" /><path
         inkscape:connector-curvature="0"
         id="path144"
         style="fill:#000000;fill-opacity:1;fill-rule:evenodd;stroke:#000000;stroke-width:27.14264297;stroke-linecap:butt;stroke-linejoin:miter;stroke-miterlimit:4;stroke-dasharray:none;stroke-opacity:1"
         d="M 1183.8066,1667.7936 703.23996,2715.618" /><path
         inkscape:connector-curvature="0"
         id="path148"
         style="fill:#000000;fill-opacity:1;fill-rule:evenodd;stroke:#000000;stroke-width:27.12025261;stroke-linecap:butt;stroke-linejoin:miter;stroke-miterlimit:4;stroke-dasharray:none;stroke-opacity:1"
         d="M 1187.685,1669.0836 972.0219,2800.532" /><path
         inkscape:connector-curvature="0"
         id="path152"
         style="fill:#000000;fill-opacity:1;fill-rule:evenodd;stroke:#000000;stroke-width:27.37308502;stroke-linecap:butt;stroke-linejoin:miter;stroke-miterlimit:4;stroke-dasharray:none;stroke-opacity:1"
         d="m 1191.2886,1669.3971 61.9469,1160.9066" /><path
         inkscape:connector-curvature="0"
         id="path156"
         style="fill:#000000;fill-opacity:1;fill-rule:evenodd;stroke:#000000;stroke-width:27.22879028;stroke-linecap:butt;stroke-linejoin:miter;stroke-miterlimit:4;stroke-dasharray:none;stroke-opacity:1"
         d="m 1195.206,1668.6413 336.1867,1106.4841" /><path
         inkscape:connector-curvature="0"
         id="path160"
         style="fill:#000000;fill-opacity:1;fill-rule:evenodd;stroke:#000000;stroke-width:27.17036819;stroke-linecap:butt;stroke-linejoin:miter;stroke-miterlimit:4;stroke-dasharray:none;stroke-opacity:1"
         d="m 1198.9025,1666.9431 589.943,991.7507" /><path
         inkscape:connector-curvature="0"
         id="path164"
         style="fill:#000000;fill-opacity:1;fill-rule:evenodd;stroke:#000000;stroke-width:27.30304718;stroke-linecap:butt;stroke-linejoin:miter;stroke-miterlimit:4;stroke-dasharray:none;stroke-opacity:1"
         d="m 1202.1859,1664.4731 814.0942,825.7611" /><path
         inkscape:connector-curvature="0"
         id="path168"
         style="fill:#000000;fill-opacity:1;fill-rule:evenodd;stroke:#000000;stroke-width:27.2249012;stroke-linecap:butt;stroke-linejoin:miter;stroke-miterlimit:4;stroke-dasharray:none;stroke-opacity:1"
         d="m 1204.7131,1661.2472 985.227,605.2086" /><path
         inkscape:connector-curvature="0"
         id="path172"
         style="fill:#000000;fill-opacity:1;fill-rule:evenodd;stroke:#000000;stroke-width:27.06737137;stroke-linecap:butt;stroke-linejoin:miter;stroke-miterlimit:4;stroke-dasharray:none;stroke-opacity:1"
         d="m 1206.4267,1657.4771 1095.0582,349.8088" /><path
         inkscape:connector-curvature="0"
         id="path180"
         style="fill:#ececec;fill-opacity:1;fill-rule:nonzero;stroke:#000000;stroke-width:25.82788086;stroke-linecap:butt;stroke-linejoin:miter;stroke-miterlimit:4;stroke-dasharray:none;stroke-opacity:1"
         d="m 1971.262,1652.6668 c 0,-207.054 -82.254,-405.632 -228.664,-552.043 -146.414,-146.414 -344.989,-228.664 -552.047,-228.664 -207.059,0 -405.633,82.25 -552.043,228.664 -146.414,146.411 -228.668,344.989 -228.668,552.043 0,207.059 82.254,405.637 228.668,552.047 146.41,146.41 344.984,228.664 552.043,228.664 207.058,0 405.633,-82.254 552.047,-228.664 146.41,-146.41 228.664,-344.988 228.664,-552.047 z" /></g></g></svg>