<?xml version="1.0" encoding="UTF-8" standalone="no"?>
<svg
   xmlns:dc="http://purl.org/dc/elements/1.1/"
   xmlns:cc="http://creativecommons.org/ns#"
   xmlns:rdf="http://www.w3.org/1999/02/22-rdf-syntax-ns#"
   xmlns:svg="http://www.w3.org/2000/svg"
   xmlns="http://www.w3.org/2000/svg"
   xmlns:sodipodi="http://sodipodi.sourceforge.net/DTD/sodipodi-0.dtd"
   xmlns:inkscape="http://www.inkscape.org/namespaces/inkscape"
   version="1.0"
   id="body"
   width="354.29233"
   height="85.180862"
   viewBox="0 0 0.99989174 0.68685521"
   preserveAspectRatio="none"
   sodipodi:version="0.32"
   inkscape:version="0.47pre4 r22446"
   sodipodi:docname="Syn2catLOGO_C.svg"
   inkscape:output_extension="org.inkscape.output.svg.inkscape">
  <metadata
     id="metadata2725">
    <rdf:RDF>
      <cc:Work
         rdf:about="">
        <dc:format>image/svg+xml</dc:format>
        <dc:type
           rdf:resource="http://purl.org/dc/dcmitype/StillImage" />
        <dc:title>SVG drawing</dc:title>
      </cc:Work>
    </rdf:RDF>
  </metadata>
  <defs
     id="defs2723">
    <inkscape:perspective
       sodipodi:type="inkscape:persp3d"
       inkscape:vp_x="0 : 360 : 1"
       inkscape:vp_y="0 : 1000 : 0"
       inkscape:vp_z="720 : 360 : 1"
       inkscape:persp3d-origin="360 : 240 : 1"
       id="perspective2727" />
    <inkscape:perspective
       id="perspective4806"
       inkscape:persp3d-origin="0.5 : 0.33333333 : 1"
       inkscape:vp_z="1 : 0.5 : 1"
       inkscape:vp_y="0 : 1000 : 0"
       inkscape:vp_x="0 : 0.5 : 1"
       sodipodi:type="inkscape:persp3d" />
  </defs>
  <sodipodi:namedview
     inkscape:window-height="848"
     inkscape:window-width="1390"
     inkscape:pageshadow="2"
     inkscape:pageopacity="0.0"
     guidetolerance="10.0"
     gridtolerance="10.0"
     objecttolerance="10.0"
     borderopacity="1.0"
     bordercolor="#666666"
     pagecolor="#ffffff"
     id="base"
     showgrid="false"
     units="mm"
     inkscape:zoom="2.5555556"
     inkscape:cx="227.37259"
     inkscape:cy="47.725205"
     inkscape:window-x="261"
     inkscape:window-y="191"
     inkscape:current-layer="body"
     inkscape:window-maximized="0" />
  <title
     id="title2404">SVG drawing</title>
  <desc
     id="desc2406">This was produced by version 4.2 of GNU libplot, a free library for exporting 2-D vector graphics.</desc>
  <g
     id="g2643"
     transform="matrix(0.37291851,0,0,1.0695691,0.31538707,-0.20922142)">
    <path
       transform="matrix(1.0028595,0,0,1.0028595,0.08502993,0.3866541)"
       d="m -0.69207271,0.18117914 c 0,0.0184832 -0.0149836,0.0334668 -0.0334668,0.0334668 -0.0184832,0 -0.0334668,-0.0149836 -0.0334668,-0.0334668 0,-0.0184832 0.0149836,-0.0334668 0.0334668,-0.0334668 0.0184832,0 0.0334668,0.0149836 0.0334668,0.0334668 z"
       sodipodi:ry="0.033466794"
       sodipodi:rx="0.033466794"
       sodipodi:cy="0.18117914"
       sodipodi:cx="-0.72553951"
       id="path4819"
       style="fill:#00aeef;fill-opacity:1;fill-rule:nonzero;stroke:#00ffff;stroke-width:0;stroke-linecap:butt;stroke-linejoin:miter;stroke-miterlimit:10.43299961;stroke-opacity:1;stroke-dasharray:none;stroke-dashoffset:0;marker:none;visibility:visible;display:inline;overflow:visible;enable-background:accumulate"
       sodipodi:type="arc" />
    <path
       transform="matrix(1.0028595,0,0,1.0028595,0.7017364,0.301852)"
       d="m -0.69207271,0.18117914 c 0,0.0184832 -0.0149836,0.0334668 -0.0334668,0.0334668 -0.0184832,0 -0.0334668,-0.0149836 -0.0334668,-0.0334668 0,-0.0184832 0.0149836,-0.0334668 0.0334668,-0.0334668 0.0184832,0 0.0334668,0.0149836 0.0334668,0.0334668 z"
       sodipodi:ry="0.033466794"
       sodipodi:rx="0.033466794"
       sodipodi:cy="0.18117914"
       sodipodi:cx="-0.72553951"
       id="path4822"
       style="fill:#00aeef;fill-opacity:1;fill-rule:nonzero;stroke:#00ffff;stroke-width:0;stroke-linecap:butt;stroke-linejoin:miter;stroke-miterlimit:10.43299961;stroke-opacity:1;stroke-dasharray:none;stroke-dashoffset:0;marker:none;visibility:visible;display:inline;overflow:visible;enable-background:accumulate"
       sodipodi:type="arc" />
    <path
       transform="matrix(1.0028595,0,0,1.0028595,0.5629711,0.13226)"
       d="m -0.69207271,0.18117914 c 0,0.0184832 -0.0149836,0.0334668 -0.0334668,0.0334668 -0.0184832,0 -0.0334668,-0.0149836 -0.0334668,-0.0334668 0,-0.0184832 0.0149836,-0.0334668 0.0334668,-0.0334668 0.0184832,0 0.0334668,0.0149836 0.0334668,0.0334668 z"
       sodipodi:ry="0.033466794"
       sodipodi:rx="0.033466794"
       sodipodi:cy="0.18117914"
       sodipodi:cx="-0.72553951"
       id="path4824"
       style="fill:#00aeef;fill-opacity:1;fill-rule:nonzero;stroke:#00ffff;stroke-width:0;stroke-linecap:butt;stroke-linejoin:miter;stroke-miterlimit:10.43299961;stroke-opacity:1;stroke-dasharray:none;stroke-dashoffset:0;marker:none;visibility:visible;display:inline;overflow:visible;enable-background:accumulate"
       sodipodi:type="arc" />
    <path
       transform="matrix(1.0028595,0,0,1.0028595,1.0949119,0.2485038)"
       d="m -0.69207271,0.18117914 c 0,0.0184832 -0.0149836,0.0334668 -0.0334668,0.0334668 -0.0184832,0 -0.0334668,-0.0149836 -0.0334668,-0.0334668 0,-0.0184832 0.0149836,-0.0334668 0.0334668,-0.0334668 0.0184832,0 0.0334668,0.0149836 0.0334668,0.0334668 z"
       sodipodi:ry="0.033466794"
       sodipodi:rx="0.033466794"
       sodipodi:cy="0.18117914"
       sodipodi:cx="-0.72553951"
       id="path2471"
       style="fill:#00aeef;fill-opacity:1;fill-rule:nonzero;stroke:#00ffff;stroke-width:0;stroke-linecap:butt;stroke-linejoin:miter;stroke-miterlimit:10.43299961;stroke-opacity:1;stroke-dasharray:none;stroke-dashoffset:0;marker:none;visibility:visible;display:inline;overflow:visible;enable-background:accumulate"
       sodipodi:type="arc" />
    <path
       transform="matrix(1.0028595,0,0,1.0028595,1.5728491,0.3866541)"
       d="m -0.69207271,0.18117914 c 0,0.0184832 -0.0149836,0.0334668 -0.0334668,0.0334668 -0.0184832,0 -0.0334668,-0.0149836 -0.0334668,-0.0334668 0,-0.0184832 0.0149836,-0.0334668 0.0334668,-0.0334668 0.0184832,0 0.0334668,0.0149836 0.0334668,0.0334668 z"
       sodipodi:ry="0.033466794"
       sodipodi:rx="0.033466794"
       sodipodi:cy="0.18117914"
       sodipodi:cx="-0.72553951"
       id="path2473"
       style="fill:#00aeef;fill-opacity:1;fill-rule:nonzero;stroke:#00ffff;stroke-width:0;stroke-linecap:butt;stroke-linejoin:miter;stroke-miterlimit:10.43299961;stroke-opacity:1;stroke-dasharray:none;stroke-dashoffset:0;marker:none;visibility:visible;display:inline;overflow:visible;enable-background:accumulate"
       sodipodi:type="arc" />
    <path
       transform="matrix(1.0028595,0,0,1.0028595,1.9660327,0.217058)"
       d="m -0.69207271,0.18117914 c 0,0.0184832 -0.0149836,0.0334668 -0.0334668,0.0334668 -0.0184832,0 -0.0334668,-0.0149836 -0.0334668,-0.0334668 0,-0.0184832 0.0149836,-0.0334668 0.0334668,-0.0334668 0.0184832,0 0.0334668,0.0149836 0.0334668,0.0334668 z"
       sodipodi:ry="0.033466794"
       sodipodi:rx="0.033466794"
       sodipodi:cy="0.18117914"
       sodipodi:cx="-0.72553951"
       id="path2475"
       style="fill:#00aeef;fill-opacity:1;fill-rule:nonzero;stroke:#00ffff;stroke-width:0;stroke-linecap:butt;stroke-linejoin:miter;stroke-miterlimit:10.43299961;stroke-opacity:1;stroke-dasharray:none;stroke-dashoffset:0;marker:none;visibility:visible;display:inline;overflow:visible;enable-background:accumulate"
       sodipodi:type="arc" />
    <path
       transform="matrix(1.0028595,0,0,1.0028595,2.5287638,0.301852)"
       d="m -0.69207271,0.18117914 c 0,0.0184832 -0.0149836,0.0334668 -0.0334668,0.0334668 -0.0184832,0 -0.0334668,-0.0149836 -0.0334668,-0.0334668 0,-0.0184832 0.0149836,-0.0334668 0.0334668,-0.0334668 0.0184832,0 0.0334668,0.0149836 0.0334668,0.0334668 z"
       sodipodi:ry="0.033466794"
       sodipodi:rx="0.033466794"
       sodipodi:cy="0.18117914"
       sodipodi:cx="-0.72553951"
       id="path2477"
       style="fill:#00aeef;fill-opacity:1;fill-rule:nonzero;stroke:#00ffff;stroke-width:0;stroke-linecap:butt;stroke-linejoin:miter;stroke-miterlimit:10.43299961;stroke-opacity:1;stroke-dasharray:none;stroke-dashoffset:0;marker:none;visibility:visible;display:inline;overflow:visible;enable-background:accumulate"
       sodipodi:type="arc" />
    <path
       transform="matrix(1.0028595,0,0,1.0028595,2.318807e-4,0.217058)"
       d="m -0.69207271,0.18117914 c 0,0.0184832 -0.0149836,0.0334668 -0.0334668,0.0334668 -0.0184832,0 -0.0334668,-0.0149836 -0.0334668,-0.0334668 0,-0.0184832 0.0149836,-0.0334668 0.0334668,-0.0334668 0.0184832,0 0.0334668,0.0149836 0.0334668,0.0334668 z"
       sodipodi:ry="0.033466794"
       sodipodi:rx="0.033466794"
       sodipodi:cy="0.18117914"
       sodipodi:cx="-0.72553951"
       id="path4695"
       style="fill:#000000;fill-opacity:1;stroke:none"
       sodipodi:type="arc" />
    <path
       transform="matrix(1.0028595,0,0,1.0028595,0.08502993,0.217058)"
       d="m -0.69207271,0.18117914 c 0,0.0184832 -0.0149836,0.0334668 -0.0334668,0.0334668 -0.0184832,0 -0.0334668,-0.0149836 -0.0334668,-0.0334668 0,-0.0184832 0.0149836,-0.0334668 0.0334668,-0.0334668 0.0184832,0 0.0334668,0.0149836 0.0334668,0.0334668 z"
       sodipodi:ry="0.033466794"
       sodipodi:rx="0.033466794"
       sodipodi:cy="0.18117914"
       sodipodi:cx="-0.72553951"
       id="path4697"
       style="fill:#000000;fill-opacity:1;stroke:none"
       sodipodi:type="arc" />
    <path
       transform="matrix(1.0028595,0,0,1.0028595,0.169828,0.301852)"
       d="m -0.69207271,0.18117914 c 0,0.0184832 -0.0149836,0.0334668 -0.0334668,0.0334668 -0.0184832,0 -0.0334668,-0.0149836 -0.0334668,-0.0334668 0,-0.0184832 0.0149836,-0.0334668 0.0334668,-0.0334668 0.0184832,0 0.0334668,0.0149836 0.0334668,0.0334668 z"
       sodipodi:ry="0.033466794"
       sodipodi:rx="0.033466794"
       sodipodi:cy="0.18117914"
       sodipodi:cx="-0.72553951"
       id="path4699"
       style="fill:#000000;fill-opacity:1;stroke:none"
       sodipodi:type="arc" />
    <path
       transform="matrix(1.0028595,0,0,1.0028595,2.318807e-4,0.3866541)"
       d="m -0.69207271,0.18117914 c 0,0.0184832 -0.0149836,0.0334668 -0.0334668,0.0334668 -0.0184832,0 -0.0334668,-0.0149836 -0.0334668,-0.0334668 0,-0.0184832 0.0149836,-0.0334668 0.0334668,-0.0334668 0.0184832,0 0.0334668,0.0149836 0.0334668,0.0334668 z"
       sodipodi:ry="0.033466794"
       sodipodi:rx="0.033466794"
       sodipodi:cy="0.18117914"
       sodipodi:cx="-0.72553951"
       id="path4701"
       style="fill:#000000;fill-opacity:1;stroke:none"
       sodipodi:type="arc" />
    <path
       transform="matrix(1.0028595,0,0,1.0028595,-0.08454982,0.3866541)"
       d="m -0.69207271,0.18117914 c 0,0.0184832 -0.0149836,0.0334668 -0.0334668,0.0334668 -0.0184832,0 -0.0334668,-0.0149836 -0.0334668,-0.0334668 0,-0.0184832 0.0149836,-0.0334668 0.0334668,-0.0334668 0.0184832,0 0.0334668,0.0149836 0.0334668,0.0334668 z"
       sodipodi:ry="0.033466794"
       sodipodi:rx="0.033466794"
       sodipodi:cy="0.18117914"
       sodipodi:cx="-0.72553951"
       id="path4703"
       style="fill:#000000;fill-opacity:1;stroke:none"
       sodipodi:type="arc" />
    <path
       transform="matrix(1.0028595,0,0,1.0028595,0.3086215,0.13226)"
       d="m -0.69207271,0.18117914 c 0,0.0184832 -0.0149836,0.0334668 -0.0334668,0.0334668 -0.0184832,0 -0.0334668,-0.0149836 -0.0334668,-0.0334668 0,-0.0184832 0.0149836,-0.0334668 0.0334668,-0.0334668 0.0184832,0 0.0334668,0.0149836 0.0334668,0.0334668 z"
       sodipodi:ry="0.033466794"
       sodipodi:rx="0.033466794"
       sodipodi:cy="0.18117914"
       sodipodi:cx="-0.72553951"
       id="path4707"
       style="fill:#000000;fill-opacity:1;stroke:none"
       sodipodi:type="arc" />
    <path
       transform="matrix(1.0028595,0,0,1.0028595,0.3934074,0.217058)"
       d="m -0.69207271,0.18117914 c 0,0.0184832 -0.0149836,0.0334668 -0.0334668,0.0334668 -0.0184832,0 -0.0334668,-0.0149836 -0.0334668,-0.0334668 0,-0.0184832 0.0149836,-0.0334668 0.0334668,-0.0334668 0.0184832,0 0.0334668,0.0149836 0.0334668,0.0334668 z"
       sodipodi:ry="0.033466794"
       sodipodi:rx="0.033466794"
       sodipodi:cy="0.18117914"
       sodipodi:cx="-0.72553951"
       id="path4709"
       style="fill:#000000;fill-opacity:1;stroke:none"
       sodipodi:type="arc" />
    <path
       transform="matrix(1.0028595,0,0,1.0028595,0.3934074,0.3866541)"
       d="m -0.69207271,0.18117914 c 0,0.0184832 -0.0149836,0.0334668 -0.0334668,0.0334668 -0.0184832,0 -0.0334668,-0.0149836 -0.0334668,-0.0334668 0,-0.0184832 0.0149836,-0.0334668 0.0334668,-0.0334668 0.0184832,0 0.0334668,0.0149836 0.0334668,0.0334668 z"
       sodipodi:ry="0.033466794"
       sodipodi:rx="0.033466794"
       sodipodi:cy="0.18117914"
       sodipodi:cx="-0.72553951"
       id="path4711"
       style="fill:#000000;fill-opacity:1;stroke:none"
       sodipodi:type="arc" />
    <path
       transform="matrix(1.0028595,0,0,1.0028595,0.4781852,0.3866541)"
       d="m -0.69207271,0.18117914 c 0,0.0184832 -0.0149836,0.0334668 -0.0334668,0.0334668 -0.0184832,0 -0.0334668,-0.0149836 -0.0334668,-0.0334668 0,-0.0184832 0.0149836,-0.0334668 0.0334668,-0.0334668 0.0184832,0 0.0334668,0.0149836 0.0334668,0.0334668 z"
       sodipodi:ry="0.033466794"
       sodipodi:rx="0.033466794"
       sodipodi:cy="0.18117914"
       sodipodi:cx="-0.72553951"
       id="path4713"
       style="fill:#000000;fill-opacity:1;stroke:none"
       sodipodi:type="arc" />
    <path
       transform="matrix(1.0028595,0,0,1.0028595,0.5629711,0.301852)"
       d="m -0.69207271,0.18117914 c 0,0.0184832 -0.0149836,0.0334668 -0.0334668,0.0334668 -0.0184832,0 -0.0334668,-0.0149836 -0.0334668,-0.0334668 0,-0.0184832 0.0149836,-0.0334668 0.0334668,-0.0334668 0.0184832,0 0.0334668,0.0149836 0.0334668,0.0334668 z"
       sodipodi:ry="0.033466794"
       sodipodi:rx="0.033466794"
       sodipodi:cy="0.18117914"
       sodipodi:cx="-0.72553951"
       id="path4715"
       style="fill:#000000;fill-opacity:1;stroke:none"
       sodipodi:type="arc" />
    <path
       transform="matrix(1.0028595,0,0,1.0028595,0.5629711,0.217058)"
       d="m -0.69207271,0.18117914 c 0,0.0184832 -0.0149836,0.0334668 -0.0334668,0.0334668 -0.0184832,0 -0.0334668,-0.0149836 -0.0334668,-0.0334668 0,-0.0184832 0.0149836,-0.0334668 0.0334668,-0.0334668 0.0184832,0 0.0334668,0.0149836 0.0334668,0.0334668 z"
       sodipodi:ry="0.033466794"
       sodipodi:rx="0.033466794"
       sodipodi:cy="0.18117914"
       sodipodi:cx="-0.72553951"
       id="path4717"
       style="fill:#000000;fill-opacity:1;stroke:none"
       sodipodi:type="arc" />
    <path
       transform="matrix(1.0028595,0,0,1.0028595,0.4781852,0.217058)"
       d="m -0.69207271,0.18117914 c 0,0.0184832 -0.0149836,0.0334668 -0.0334668,0.0334668 -0.0184832,0 -0.0334668,-0.0149836 -0.0334668,-0.0334668 0,-0.0184832 0.0149836,-0.0334668 0.0334668,-0.0334668 0.0184832,0 0.0334668,0.0149836 0.0334668,0.0334668 z"
       sodipodi:ry="0.033466794"
       sodipodi:rx="0.033466794"
       sodipodi:cy="0.18117914"
       sodipodi:cx="-0.72553951"
       id="path4719"
       style="fill:#000000;fill-opacity:1;stroke:none"
       sodipodi:type="arc" />
    <path
       transform="matrix(1.0028595,0,0,1.0028595,0.5629711,0.04747809)"
       d="m -0.69207271,0.18117914 c 0,0.0184832 -0.0149836,0.0334668 -0.0334668,0.0334668 -0.0184832,0 -0.0334668,-0.0149836 -0.0334668,-0.0334668 0,-0.0184832 0.0149836,-0.0334668 0.0334668,-0.0334668 0.0184832,0 0.0334668,0.0149836 0.0334668,0.0334668 z"
       sodipodi:ry="0.033466794"
       sodipodi:rx="0.033466794"
       sodipodi:cy="0.18117914"
       sodipodi:cx="-0.72553951"
       id="path4721"
       style="fill:#000000;fill-opacity:1;stroke:none"
       sodipodi:type="arc" />
    <path
       transform="matrix(1.0028595,0,0,1.0028595,0.7017364,0.04747809)"
       d="m -0.69207271,0.18117914 c 0,0.0184832 -0.0149836,0.0334668 -0.0334668,0.0334668 -0.0184832,0 -0.0334668,-0.0149836 -0.0334668,-0.0334668 0,-0.0184832 0.0149836,-0.0334668 0.0334668,-0.0334668 0.0184832,0 0.0334668,0.0149836 0.0334668,0.0334668 z"
       sodipodi:ry="0.033466794"
       sodipodi:rx="0.033466794"
       sodipodi:cy="0.18117914"
       sodipodi:cx="-0.72553951"
       id="path4723"
       style="fill:#000000;fill-opacity:1;stroke:none"
       sodipodi:type="arc" />
    <path
       transform="matrix(1.0028595,0,0,1.0028595,0.7017364,0.13226)"
       d="m -0.69207271,0.18117914 c 0,0.0184832 -0.0149836,0.0334668 -0.0334668,0.0334668 -0.0184832,0 -0.0334668,-0.0149836 -0.0334668,-0.0334668 0,-0.0184832 0.0149836,-0.0334668 0.0334668,-0.0334668 0.0184832,0 0.0334668,0.0149836 0.0334668,0.0334668 z"
       sodipodi:ry="0.033466794"
       sodipodi:rx="0.033466794"
       sodipodi:cy="0.18117914"
       sodipodi:cx="-0.72553951"
       id="path4725"
       style="fill:#000000;fill-opacity:1;stroke:none"
       sodipodi:type="arc" />
    <path
       transform="matrix(1.0028595,0,0,1.0028595,0.7017364,0.217058)"
       d="m -0.69207271,0.18117914 c 0,0.0184832 -0.0149836,0.0334668 -0.0334668,0.0334668 -0.0184832,0 -0.0334668,-0.0149836 -0.0334668,-0.0334668 0,-0.0184832 0.0149836,-0.0334668 0.0334668,-0.0334668 0.0184832,0 0.0334668,0.0149836 0.0334668,0.0334668 z"
       sodipodi:ry="0.033466794"
       sodipodi:rx="0.033466794"
       sodipodi:cy="0.18117914"
       sodipodi:cx="-0.72553951"
       id="path4727"
       style="fill:#000000;fill-opacity:1;stroke:none"
       sodipodi:type="arc" />
    <path
       transform="matrix(1.0028595,0,0,1.0028595,0.7017364,0.3866541)"
       d="m -0.69207271,0.18117914 c 0,0.0184832 -0.0149836,0.0334668 -0.0334668,0.0334668 -0.0184832,0 -0.0334668,-0.0149836 -0.0334668,-0.0334668 0,-0.0184832 0.0149836,-0.0334668 0.0334668,-0.0334668 0.0184832,0 0.0334668,0.0149836 0.0334668,0.0334668 z"
       sodipodi:ry="0.033466794"
       sodipodi:rx="0.033466794"
       sodipodi:cy="0.18117914"
       sodipodi:cx="-0.72553951"
       id="path4729"
       style="fill:#000000;fill-opacity:1;stroke:none"
       sodipodi:type="arc" />
    <path
       transform="matrix(1.0028595,0,0,1.0028595,0.7865223,0.04747809)"
       d="m -0.69207271,0.18117914 c 0,0.0184832 -0.0149836,0.0334668 -0.0334668,0.0334668 -0.0184832,0 -0.0334668,-0.0149836 -0.0334668,-0.0334668 0,-0.0184832 0.0149836,-0.0334668 0.0334668,-0.0334668 0.0184832,0 0.0334668,0.0149836 0.0334668,0.0334668 z"
       sodipodi:ry="0.033466794"
       sodipodi:rx="0.033466794"
       sodipodi:cy="0.18117914"
       sodipodi:cx="-0.72553951"
       id="path4731"
       style="fill:#000000;fill-opacity:1;stroke:none"
       sodipodi:type="arc" />
    <path
       transform="matrix(1.0028595,0,0,1.0028595,0.8713163,0.04747809)"
       d="m -0.69207271,0.18117914 c 0,0.0184832 -0.0149836,0.0334668 -0.0334668,0.0334668 -0.0184832,0 -0.0334668,-0.0149836 -0.0334668,-0.0334668 0,-0.0184832 0.0149836,-0.0334668 0.0334668,-0.0334668 0.0184832,0 0.0334668,0.0149836 0.0334668,0.0334668 z"
       sodipodi:ry="0.033466794"
       sodipodi:rx="0.033466794"
       sodipodi:cy="0.18117914"
       sodipodi:cx="-0.72553951"
       id="path4733"
       style="fill:#000000;fill-opacity:1;stroke:none"
       sodipodi:type="arc" />
    <path
       transform="matrix(1.0028595,0,0,1.0028595,0.9561103,0.13226)"
       d="m -0.69207271,0.18117914 c 0,0.0184832 -0.0149836,0.0334668 -0.0334668,0.0334668 -0.0184832,0 -0.0334668,-0.0149836 -0.0334668,-0.0334668 0,-0.0184832 0.0149836,-0.0334668 0.0334668,-0.0334668 0.0184832,0 0.0334668,0.0149836 0.0334668,0.0334668 z"
       sodipodi:ry="0.033466794"
       sodipodi:rx="0.033466794"
       sodipodi:cy="0.18117914"
       sodipodi:cx="-0.72553951"
       id="path4735"
       style="fill:#000000;fill-opacity:1;stroke:none"
       sodipodi:type="arc" />
    <path
       transform="matrix(1.0028595,0,0,1.0028595,0.9561103,0.217058)"
       d="m -0.69207271,0.18117914 c 0,0.0184832 -0.0149836,0.0334668 -0.0334668,0.0334668 -0.0184832,0 -0.0334668,-0.0149836 -0.0334668,-0.0334668 0,-0.0184832 0.0149836,-0.0334668 0.0334668,-0.0334668 0.0184832,0 0.0334668,0.0149836 0.0334668,0.0334668 z"
       sodipodi:ry="0.033466794"
       sodipodi:rx="0.033466794"
       sodipodi:cy="0.18117914"
       sodipodi:cx="-0.72553951"
       id="path4737"
       style="fill:#000000;fill-opacity:1;stroke:none"
       sodipodi:type="arc" />
    <path
       transform="matrix(1.0028595,0,0,1.0028595,0.9561103,0.301852)"
       d="m -0.69207271,0.18117914 c 0,0.0184832 -0.0149836,0.0334668 -0.0334668,0.0334668 -0.0184832,0 -0.0334668,-0.0149836 -0.0334668,-0.0334668 0,-0.0184832 0.0149836,-0.0334668 0.0334668,-0.0334668 0.0184832,0 0.0334668,0.0149836 0.0334668,0.0334668 z"
       sodipodi:ry="0.033466794"
       sodipodi:rx="0.033466794"
       sodipodi:cy="0.18117914"
       sodipodi:cx="-0.72553951"
       id="path4739"
       style="fill:#000000;fill-opacity:1;stroke:none"
       sodipodi:type="arc" />
    <path
       transform="matrix(1.0028595,0,0,1.0028595,0.9561103,0.3866541)"
       d="m -0.69207271,0.18117914 c 0,0.0184832 -0.0149836,0.0334668 -0.0334668,0.0334668 -0.0184832,0 -0.0334668,-0.0149836 -0.0334668,-0.0334668 0,-0.0184832 0.0149836,-0.0334668 0.0334668,-0.0334668 0.0184832,0 0.0334668,0.0149836 0.0334668,0.0334668 z"
       sodipodi:ry="0.033466794"
       sodipodi:rx="0.033466794"
       sodipodi:cy="0.18117914"
       sodipodi:cx="-0.72553951"
       id="path4741"
       style="fill:#000000;fill-opacity:1;stroke:none"
       sodipodi:type="arc" />
    <path
       transform="matrix(1.0028595,0,0,1.0028595,1.1796654,0.2485038)"
       d="m -0.69207271,0.18117914 c 0,0.0184832 -0.0149836,0.0334668 -0.0334668,0.0334668 -0.0184832,0 -0.0334668,-0.0149836 -0.0334668,-0.0334668 0,-0.0184832 0.0149836,-0.0334668 0.0334668,-0.0334668 0.0184832,0 0.0334668,0.0149836 0.0334668,0.0334668 z"
       sodipodi:ry="0.033466794"
       sodipodi:rx="0.033466794"
       sodipodi:cy="0.18117914"
       sodipodi:cx="-0.72553951"
       id="path4743"
       style="fill:#000000;fill-opacity:1;stroke:none"
       sodipodi:type="arc" />
    <path
       transform="matrix(1.0028595,0,0,1.0028595,1.2644595,0.2485038)"
       d="m -0.69207271,0.18117914 c 0,0.0184832 -0.0149836,0.0334668 -0.0334668,0.0334668 -0.0184832,0 -0.0334668,-0.0149836 -0.0334668,-0.0334668 0,-0.0184832 0.0149836,-0.0334668 0.0334668,-0.0334668 0.0184832,0 0.0334668,0.0149836 0.0334668,0.0334668 z"
       sodipodi:ry="0.033466794"
       sodipodi:rx="0.033466794"
       sodipodi:cy="0.18117914"
       sodipodi:cx="-0.72553951"
       id="path4745"
       style="fill:#000000;fill-opacity:1;stroke:none"
       sodipodi:type="arc" />
    <path
       transform="matrix(1.0028595,0,0,1.0028595,1.3492939,0.3333018)"
       d="m -0.69207271,0.18117914 c 0,0.0184832 -0.0149836,0.0334668 -0.0334668,0.0334668 -0.0184832,0 -0.0334668,-0.0149836 -0.0334668,-0.0334668 0,-0.0184832 0.0149836,-0.0334668 0.0334668,-0.0334668 0.0184832,0 0.0334668,0.0149836 0.0334668,0.0334668 z"
       sodipodi:ry="0.033466794"
       sodipodi:rx="0.033466794"
       sodipodi:cy="0.18117914"
       sodipodi:cx="-0.72553951"
       id="path4747"
       style="fill:#000000;fill-opacity:1;stroke:none"
       sodipodi:type="arc" />
    <path
       transform="matrix(1.0028595,0,0,1.0028595,1.2644595,0.4180999)"
       d="m -0.69207271,0.18117914 c 0,0.0184832 -0.0149836,0.0334668 -0.0334668,0.0334668 -0.0184832,0 -0.0334668,-0.0149836 -0.0334668,-0.0334668 0,-0.0184832 0.0149836,-0.0334668 0.0334668,-0.0334668 0.0184832,0 0.0334668,0.0149836 0.0334668,0.0334668 z"
       sodipodi:ry="0.033466794"
       sodipodi:rx="0.033466794"
       sodipodi:cy="0.18117914"
       sodipodi:cx="-0.72553951"
       id="path4749"
       style="fill:#000000;fill-opacity:1;stroke:none"
       sodipodi:type="arc" />
    <path
       transform="matrix(1.0028595,0,0,1.0028595,1.1796654,0.4180999)"
       d="m -0.69207271,0.18117914 c 0,0.0184832 -0.0149836,0.0334668 -0.0334668,0.0334668 -0.0184832,0 -0.0334668,-0.0149836 -0.0334668,-0.0334668 0,-0.0184832 0.0149836,-0.0334668 0.0334668,-0.0334668 0.0184832,0 0.0334668,0.0149836 0.0334668,0.0334668 z"
       sodipodi:ry="0.033466794"
       sodipodi:rx="0.033466794"
       sodipodi:cy="0.18117914"
       sodipodi:cx="-0.72553951"
       id="path4751"
       style="fill:#000000;fill-opacity:1;stroke:none"
       sodipodi:type="arc" />
    <path
       transform="matrix(1.0028595,0,0,1.0028595,1.3492939,0.5876782)"
       d="m -0.69207271,0.18117914 c 0,0.0184832 -0.0149836,0.0334668 -0.0334668,0.0334668 -0.0184832,0 -0.0334668,-0.0149836 -0.0334668,-0.0334668 0,-0.0184832 0.0149836,-0.0334668 0.0334668,-0.0334668 0.0184832,0 0.0334668,0.0149836 0.0334668,0.0334668 z"
       sodipodi:ry="0.033466794"
       sodipodi:rx="0.033466794"
       sodipodi:cy="0.18117914"
       sodipodi:cx="-0.72553951"
       id="path4753"
       style="fill:#000000;fill-opacity:1;stroke:none"
       sodipodi:type="arc" />
    <path
       transform="matrix(1.0028595,0,0,1.0028595,1.0949119,0.5028979)"
       d="m -0.69207271,0.18117914 c 0,0.0184832 -0.0149836,0.0334668 -0.0334668,0.0334668 -0.0184832,0 -0.0334668,-0.0149836 -0.0334668,-0.0334668 0,-0.0184832 0.0149836,-0.0334668 0.0334668,-0.0334668 0.0184832,0 0.0334668,0.0149836 0.0334668,0.0334668 z"
       sodipodi:ry="0.033466794"
       sodipodi:rx="0.033466794"
       sodipodi:cy="0.18117914"
       sodipodi:cx="-0.72553951"
       id="path4755"
       style="fill:#000000;fill-opacity:1;stroke:none"
       sodipodi:type="arc" />
    <path
       transform="matrix(1.0028595,0,0,1.0028595,1.0949119,0.5876782)"
       d="m -0.69207271,0.18117914 c 0,0.0184832 -0.0149836,0.0334668 -0.0334668,0.0334668 -0.0184832,0 -0.0334668,-0.0149836 -0.0334668,-0.0334668 0,-0.0184832 0.0149836,-0.0334668 0.0334668,-0.0334668 0.0184832,0 0.0334668,0.0149836 0.0334668,0.0334668 z"
       sodipodi:ry="0.033466794"
       sodipodi:rx="0.033466794"
       sodipodi:cy="0.18117914"
       sodipodi:cx="-0.72553951"
       id="path4757"
       style="fill:#000000;fill-opacity:1;stroke:none"
       sodipodi:type="arc" />
    <path
       transform="matrix(1.0028595,0,0,1.0028595,1.1796654,0.5876782)"
       d="m -0.69207271,0.18117914 c 0,0.0184832 -0.0149836,0.0334668 -0.0334668,0.0334668 -0.0184832,0 -0.0334668,-0.0149836 -0.0334668,-0.0334668 0,-0.0184832 0.0149836,-0.0334668 0.0334668,-0.0334668 0.0184832,0 0.0334668,0.0149836 0.0334668,0.0334668 z"
       sodipodi:ry="0.033466794"
       sodipodi:rx="0.033466794"
       sodipodi:cy="0.18117914"
       sodipodi:cx="-0.72553951"
       id="path4759"
       style="fill:#000000;fill-opacity:1;stroke:none"
       sodipodi:type="arc" />
    <path
       transform="matrix(1.0028595,0,0,1.0028595,1.2644595,0.5876782)"
       d="m -0.69207271,0.18117914 c 0,0.0184832 -0.0149836,0.0334668 -0.0334668,0.0334668 -0.0184832,0 -0.0334668,-0.0149836 -0.0334668,-0.0334668 0,-0.0184832 0.0149836,-0.0334668 0.0334668,-0.0334668 0.0184832,0 0.0334668,0.0149836 0.0334668,0.0334668 z"
       sodipodi:ry="0.033466794"
       sodipodi:rx="0.033466794"
       sodipodi:cy="0.18117914"
       sodipodi:cx="-0.72553951"
       id="path4761"
       style="fill:#000000;fill-opacity:1;stroke:none"
       sodipodi:type="arc" />
    <path
       transform="matrix(1.0028595,0,0,1.0028595,1.7423966,0.04747809)"
       d="m -0.69207271,0.18117914 c 0,0.0184832 -0.0149836,0.0334668 -0.0334668,0.0334668 -0.0184832,0 -0.0334668,-0.0149836 -0.0334668,-0.0334668 0,-0.0184832 0.0149836,-0.0334668 0.0334668,-0.0334668 0.0184832,0 0.0334668,0.0149836 0.0334668,0.0334668 z"
       sodipodi:ry="0.033466794"
       sodipodi:rx="0.033466794"
       sodipodi:cy="0.18117914"
       sodipodi:cx="-0.72553951"
       id="path4763"
       style="fill:#000000;fill-opacity:1;stroke:none"
       sodipodi:type="arc" />
    <path
       transform="matrix(1.0028595,0,0,1.0028595,1.6576026,0.04747809)"
       d="m -0.69207271,0.18117914 c 0,0.0184832 -0.0149836,0.0334668 -0.0334668,0.0334668 -0.0184832,0 -0.0334668,-0.0149836 -0.0334668,-0.0334668 0,-0.0184832 0.0149836,-0.0334668 0.0334668,-0.0334668 0.0184832,0 0.0334668,0.0149836 0.0334668,0.0334668 z"
       sodipodi:ry="0.033466794"
       sodipodi:rx="0.033466794"
       sodipodi:cy="0.18117914"
       sodipodi:cx="-0.72553951"
       id="path4765"
       style="fill:#000000;fill-opacity:1;stroke:none"
       sodipodi:type="arc" />
    <path
       transform="matrix(1.0028595,0,0,1.0028595,1.5728491,0.04747809)"
       d="m -0.69207271,0.18117914 c 0,0.0184832 -0.0149836,0.0334668 -0.0334668,0.0334668 -0.0184832,0 -0.0334668,-0.0149836 -0.0334668,-0.0334668 0,-0.0184832 0.0149836,-0.0334668 0.0334668,-0.0334668 0.0184832,0 0.0334668,0.0149836 0.0334668,0.0334668 z"
       sodipodi:ry="0.033466794"
       sodipodi:rx="0.033466794"
       sodipodi:cy="0.18117914"
       sodipodi:cx="-0.72553951"
       id="path4767"
       style="fill:#000000;fill-opacity:1;stroke:none"
       sodipodi:type="arc" />
    <path
       transform="matrix(1.0028595,0,0,1.0028595,1.4880551,0.13226)"
       d="m -0.69207271,0.18117914 c 0,0.0184832 -0.0149836,0.0334668 -0.0334668,0.0334668 -0.0184832,0 -0.0334668,-0.0149836 -0.0334668,-0.0334668 0,-0.0184832 0.0149836,-0.0334668 0.0334668,-0.0334668 0.0184832,0 0.0334668,0.0149836 0.0334668,0.0334668 z"
       sodipodi:ry="0.033466794"
       sodipodi:rx="0.033466794"
       sodipodi:cy="0.18117914"
       sodipodi:cx="-0.72553951"
       id="path4769"
       style="fill:#000000;fill-opacity:1;stroke:none"
       sodipodi:type="arc" />
    <path
       transform="matrix(1.0028595,0,0,1.0028595,1.4880551,0.217058)"
       d="m -0.69207271,0.18117914 c 0,0.0184832 -0.0149836,0.0334668 -0.0334668,0.0334668 -0.0184832,0 -0.0334668,-0.0149836 -0.0334668,-0.0334668 0,-0.0184832 0.0149836,-0.0334668 0.0334668,-0.0334668 0.0184832,0 0.0334668,0.0149836 0.0334668,0.0334668 z"
       sodipodi:ry="0.033466794"
       sodipodi:rx="0.033466794"
       sodipodi:cy="0.18117914"
       sodipodi:cx="-0.72553951"
       id="path4771"
       style="fill:#000000;fill-opacity:1;stroke:none"
       sodipodi:type="arc" />
    <path
       transform="matrix(1.0028595,0,0,1.0028595,1.4880551,0.301852)"
       d="m -0.69207271,0.18117914 c 0,0.0184832 -0.0149836,0.0334668 -0.0334668,0.0334668 -0.0184832,0 -0.0334668,-0.0149836 -0.0334668,-0.0334668 0,-0.0184832 0.0149836,-0.0334668 0.0334668,-0.0334668 0.0184832,0 0.0334668,0.0149836 0.0334668,0.0334668 z"
       sodipodi:ry="0.033466794"
       sodipodi:rx="0.033466794"
       sodipodi:cy="0.18117914"
       sodipodi:cx="-0.72553951"
       id="path4773"
       style="fill:#000000;fill-opacity:1;stroke:none"
       sodipodi:type="arc" />
    <path
       transform="matrix(1.0028595,0,0,1.0028595,1.6576026,0.3866541)"
       d="m -0.69207271,0.18117914 c 0,0.0184832 -0.0149836,0.0334668 -0.0334668,0.0334668 -0.0184832,0 -0.0334668,-0.0149836 -0.0334668,-0.0334668 0,-0.0184832 0.0149836,-0.0334668 0.0334668,-0.0334668 0.0184832,0 0.0334668,0.0149836 0.0334668,0.0334668 z"
       sodipodi:ry="0.033466794"
       sodipodi:rx="0.033466794"
       sodipodi:cy="0.18117914"
       sodipodi:cx="-0.72553951"
       id="path4775"
       style="fill:#000000;fill-opacity:1;stroke:none"
       sodipodi:type="arc" />
    <path
       transform="matrix(1.0028595,0,0,1.0028595,1.7423966,0.3866541)"
       d="m -0.69207271,0.18117914 c 0,0.0184832 -0.0149836,0.0334668 -0.0334668,0.0334668 -0.0184832,0 -0.0334668,-0.0149836 -0.0334668,-0.0334668 0,-0.0184832 0.0149836,-0.0334668 0.0334668,-0.0334668 0.0184832,0 0.0334668,0.0149836 0.0334668,0.0334668 z"
       sodipodi:ry="0.033466794"
       sodipodi:rx="0.033466794"
       sodipodi:cy="0.18117914"
       sodipodi:cx="-0.72553951"
       id="path4777"
       style="fill:#000000;fill-opacity:1;stroke:none"
       sodipodi:type="arc" />
    <path
       transform="matrix(1.0028595,0,0,1.0028595,1.8811982,0.04747809)"
       d="m -0.69207271,0.18117914 c 0,0.0184832 -0.0149836,0.0334668 -0.0334668,0.0334668 -0.0184832,0 -0.0334668,-0.0149836 -0.0334668,-0.0334668 0,-0.0184832 0.0149836,-0.0334668 0.0334668,-0.0334668 0.0184832,0 0.0334668,0.0149836 0.0334668,0.0334668 z"
       sodipodi:ry="0.033466794"
       sodipodi:rx="0.033466794"
       sodipodi:cy="0.18117914"
       sodipodi:cx="-0.72553951"
       id="path4779"
       style="fill:#000000;fill-opacity:1;stroke:none"
       sodipodi:type="arc" />
    <path
       transform="matrix(1.0028595,0,0,1.0028595,1.9660327,0.04747809)"
       d="m -0.69207271,0.18117914 c 0,0.0184832 -0.0149836,0.0334668 -0.0334668,0.0334668 -0.0184832,0 -0.0334668,-0.0149836 -0.0334668,-0.0334668 0,-0.0184832 0.0149836,-0.0334668 0.0334668,-0.0334668 0.0184832,0 0.0334668,0.0149836 0.0334668,0.0334668 z"
       sodipodi:ry="0.033466794"
       sodipodi:rx="0.033466794"
       sodipodi:cy="0.18117914"
       sodipodi:cx="-0.72553951"
       id="path4781"
       style="fill:#000000;fill-opacity:1;stroke:none"
       sodipodi:type="arc" />
    <path
       transform="matrix(1.0028595,0,0,1.0028595,2.0508267,0.04747809)"
       d="m -0.69207271,0.18117914 c 0,0.0184832 -0.0149836,0.0334668 -0.0334668,0.0334668 -0.0184832,0 -0.0334668,-0.0149836 -0.0334668,-0.0334668 0,-0.0184832 0.0149836,-0.0334668 0.0334668,-0.0334668 0.0184832,0 0.0334668,0.0149836 0.0334668,0.0334668 z"
       sodipodi:ry="0.033466794"
       sodipodi:rx="0.033466794"
       sodipodi:cy="0.18117914"
       sodipodi:cx="-0.72553951"
       id="path4783"
       style="fill:#000000;fill-opacity:1;stroke:none"
       sodipodi:type="arc" />
    <path
       transform="matrix(1.0028595,0,0,1.0028595,2.0508267,0.217058)"
       d="m -0.69207271,0.18117914 c 0,0.0184832 -0.0149836,0.0334668 -0.0334668,0.0334668 -0.0184832,0 -0.0334668,-0.0149836 -0.0334668,-0.0334668 0,-0.0184832 0.0149836,-0.0334668 0.0334668,-0.0334668 0.0184832,0 0.0334668,0.0149836 0.0334668,0.0334668 z"
       sodipodi:ry="0.033466794"
       sodipodi:rx="0.033466794"
       sodipodi:cy="0.18117914"
       sodipodi:cx="-0.72553951"
       id="path4785"
       style="fill:#000000;fill-opacity:1;stroke:none"
       sodipodi:type="arc" />
    <path
       transform="matrix(1.0028595,0,0,1.0028595,1.8811982,0.301852)"
       d="m -0.69207271,0.18117914 c 0,0.0184832 -0.0149836,0.0334668 -0.0334668,0.0334668 -0.0184832,0 -0.0334668,-0.0149836 -0.0334668,-0.0334668 0,-0.0184832 0.0149836,-0.0334668 0.0334668,-0.0334668 0.0184832,0 0.0334668,0.0149836 0.0334668,0.0334668 z"
       sodipodi:ry="0.033466794"
       sodipodi:rx="0.033466794"
       sodipodi:cy="0.18117914"
       sodipodi:cx="-0.72553951"
       id="path4787"
       style="fill:#000000;fill-opacity:1;stroke:none"
       sodipodi:type="arc" />
    <path
       transform="matrix(1.0028595,0,0,1.0028595,2.1356207,0.13226)"
       d="m -0.69207271,0.18117914 c 0,0.0184832 -0.0149836,0.0334668 -0.0334668,0.0334668 -0.0184832,0 -0.0334668,-0.0149836 -0.0334668,-0.0334668 0,-0.0184832 0.0149836,-0.0334668 0.0334668,-0.0334668 0.0184832,0 0.0334668,0.0149836 0.0334668,0.0334668 z"
       sodipodi:ry="0.033466794"
       sodipodi:rx="0.033466794"
       sodipodi:cy="0.18117914"
       sodipodi:cx="-0.72553951"
       id="path4789"
       style="fill:#000000;fill-opacity:1;stroke:none"
       sodipodi:type="arc" />
    <path
       transform="matrix(1.0028595,0,0,1.0028595,2.1356207,0.217058)"
       d="m -0.69207271,0.18117914 c 0,0.0184832 -0.0149836,0.0334668 -0.0334668,0.0334668 -0.0184832,0 -0.0334668,-0.0149836 -0.0334668,-0.0334668 0,-0.0184832 0.0149836,-0.0334668 0.0334668,-0.0334668 0.0184832,0 0.0334668,0.0149836 0.0334668,0.0334668 z"
       sodipodi:ry="0.033466794"
       sodipodi:rx="0.033466794"
       sodipodi:cy="0.18117914"
       sodipodi:cx="-0.72553951"
       id="path4791"
       style="fill:#000000;fill-opacity:1;stroke:none"
       sodipodi:type="arc" />
    <path
       transform="matrix(1.0028595,0,0,1.0028595,2.1356207,0.301852)"
       d="m -0.69207271,0.18117914 c 0,0.0184832 -0.0149836,0.0334668 -0.0334668,0.0334668 -0.0184832,0 -0.0334668,-0.0149836 -0.0334668,-0.0334668 0,-0.0184832 0.0149836,-0.0334668 0.0334668,-0.0334668 0.0184832,0 0.0334668,0.0149836 0.0334668,0.0334668 z"
       sodipodi:ry="0.033466794"
       sodipodi:rx="0.033466794"
       sodipodi:cy="0.18117914"
       sodipodi:cx="-0.72553951"
       id="path4793"
       style="fill:#000000;fill-opacity:1;stroke:none"
       sodipodi:type="arc" />
    <path
       transform="matrix(1.0028595,0,0,1.0028595,2.1356207,0.3866541)"
       d="m -0.69207271,0.18117914 c 0,0.0184832 -0.0149836,0.0334668 -0.0334668,0.0334668 -0.0184832,0 -0.0334668,-0.0149836 -0.0334668,-0.0334668 0,-0.0184832 0.0149836,-0.0334668 0.0334668,-0.0334668 0.0184832,0 0.0334668,0.0149836 0.0334668,0.0334668 z"
       sodipodi:ry="0.033466794"
       sodipodi:rx="0.033466794"
       sodipodi:cy="0.18117914"
       sodipodi:cx="-0.72553951"
       id="path4795"
       style="fill:#000000;fill-opacity:1;stroke:none"
       sodipodi:type="arc" />
    <path
       transform="matrix(1.0028595,0,0,1.0028595,2.0508267,0.3866541)"
       d="m -0.69207271,0.18117914 c 0,0.0184832 -0.0149836,0.0334668 -0.0334668,0.0334668 -0.0184832,0 -0.0334668,-0.0149836 -0.0334668,-0.0334668 0,-0.0184832 0.0149836,-0.0334668 0.0334668,-0.0334668 0.0184832,0 0.0334668,0.0149836 0.0334668,0.0334668 z"
       sodipodi:ry="0.033466794"
       sodipodi:rx="0.033466794"
       sodipodi:cy="0.18117914"
       sodipodi:cx="-0.72553951"
       id="path4797"
       style="fill:#000000;fill-opacity:1;stroke:none"
       sodipodi:type="arc" />
    <path
       transform="matrix(1.0028595,0,0,1.0028595,1.9660327,0.3866541)"
       d="m -0.69207271,0.18117914 c 0,0.0184832 -0.0149836,0.0334668 -0.0334668,0.0334668 -0.0184832,0 -0.0334668,-0.0149836 -0.0334668,-0.0334668 0,-0.0184832 0.0149836,-0.0334668 0.0334668,-0.0334668 0.0184832,0 0.0334668,0.0149836 0.0334668,0.0334668 z"
       sodipodi:ry="0.033466794"
       sodipodi:rx="0.033466794"
       sodipodi:cy="0.18117914"
       sodipodi:cx="-0.72553951"
       id="path4799"
       style="fill:#000000;fill-opacity:1;stroke:none"
       sodipodi:type="arc" />
    <path
       transform="matrix(1.0028595,0,0,1.0028595,2.2743819,0.04747809)"
       d="m -0.69207271,0.18117914 c 0,0.0184832 -0.0149836,0.0334668 -0.0334668,0.0334668 -0.0184832,0 -0.0334668,-0.0149836 -0.0334668,-0.0334668 0,-0.0184832 0.0149836,-0.0334668 0.0334668,-0.0334668 0.0184832,0 0.0334668,0.0149836 0.0334668,0.0334668 z"
       sodipodi:ry="0.033466794"
       sodipodi:rx="0.033466794"
       sodipodi:cy="0.18117914"
       sodipodi:cx="-0.72553951"
       id="path4801"
       style="fill:#000000;fill-opacity:1;stroke:none"
       sodipodi:type="arc" />
    <path
       transform="matrix(1.0028595,0,0,1.0028595,2.3591354,0.13226)"
       d="m -0.69207271,0.18117914 c 0,0.0184832 -0.0149836,0.0334668 -0.0334668,0.0334668 -0.0184832,0 -0.0334668,-0.0149836 -0.0334668,-0.0334668 0,-0.0184832 0.0149836,-0.0334668 0.0334668,-0.0334668 0.0184832,0 0.0334668,0.0149836 0.0334668,0.0334668 z"
       sodipodi:ry="0.033466794"
       sodipodi:rx="0.033466794"
       sodipodi:cy="0.18117914"
       sodipodi:cx="-0.72553951"
       id="path4803"
       style="fill:#000000;fill-opacity:1;stroke:none"
       sodipodi:type="arc" />
    <path
       transform="matrix(1.0028595,0,0,1.0028595,2.4439698,0.13226)"
       d="m -0.69207271,0.18117914 c 0,0.0184832 -0.0149836,0.0334668 -0.0334668,0.0334668 -0.0184832,0 -0.0334668,-0.0149836 -0.0334668,-0.0334668 0,-0.0184832 0.0149836,-0.0334668 0.0334668,-0.0334668 0.0184832,0 0.0334668,0.0149836 0.0334668,0.0334668 z"
       sodipodi:ry="0.033466794"
       sodipodi:rx="0.033466794"
       sodipodi:cy="0.18117914"
       sodipodi:cx="-0.72553951"
       id="path4805"
       style="fill:#000000;fill-opacity:1;stroke:none"
       sodipodi:type="arc" />
    <path
       transform="matrix(1.0028595,0,0,1.0028595,2.2743819,0.13226)"
       d="m -0.69207271,0.18117914 c 0,0.0184832 -0.0149836,0.0334668 -0.0334668,0.0334668 -0.0184832,0 -0.0334668,-0.0149836 -0.0334668,-0.0334668 0,-0.0184832 0.0149836,-0.0334668 0.0334668,-0.0334668 0.0184832,0 0.0334668,0.0149836 0.0334668,0.0334668 z"
       sodipodi:ry="0.033466794"
       sodipodi:rx="0.033466794"
       sodipodi:cy="0.18117914"
       sodipodi:cx="-0.72553951"
       id="path4807"
       style="fill:#000000;fill-opacity:1;stroke:none"
       sodipodi:type="arc" />
    <path
       transform="matrix(1.0028595,0,0,1.0028595,2.2743819,0.217058)"
       d="m -0.69207271,0.18117914 c 0,0.0184832 -0.0149836,0.0334668 -0.0334668,0.0334668 -0.0184832,0 -0.0334668,-0.0149836 -0.0334668,-0.0334668 0,-0.0184832 0.0149836,-0.0334668 0.0334668,-0.0334668 0.0184832,0 0.0334668,0.0149836 0.0334668,0.0334668 z"
       sodipodi:ry="0.033466794"
       sodipodi:rx="0.033466794"
       sodipodi:cy="0.18117914"
       sodipodi:cx="-0.72553951"
       id="path4809"
       style="fill:#000000;fill-opacity:1;stroke:none"
       sodipodi:type="arc" />
    <path
       transform="matrix(1.0028595,0,0,1.0028595,2.2743819,0.301852)"
       d="m -0.69207271,0.18117914 c 0,0.0184832 -0.0149836,0.0334668 -0.0334668,0.0334668 -0.0184832,0 -0.0334668,-0.0149836 -0.0334668,-0.0334668 0,-0.0184832 0.0149836,-0.0334668 0.0334668,-0.0334668 0.0184832,0 0.0334668,0.0149836 0.0334668,0.0334668 z"
       sodipodi:ry="0.033466794"
       sodipodi:rx="0.033466794"
       sodipodi:cy="0.18117914"
       sodipodi:cx="-0.72553951"
       id="path4811"
       style="fill:#000000;fill-opacity:1;stroke:none"
       sodipodi:type="arc" />
    <path
       transform="matrix(1.0028595,0,0,1.0028595,2.3591354,0.3866541)"
       d="m -0.69207271,0.18117914 c 0,0.0184832 -0.0149836,0.0334668 -0.0334668,0.0334668 -0.0184832,0 -0.0334668,-0.0149836 -0.0334668,-0.0334668 0,-0.0184832 0.0149836,-0.0334668 0.0334668,-0.0334668 0.0184832,0 0.0334668,0.0149836 0.0334668,0.0334668 z"
       sodipodi:ry="0.033466794"
       sodipodi:rx="0.033466794"
       sodipodi:cy="0.18117914"
       sodipodi:cx="-0.72553951"
       id="path4813"
       style="fill:#000000;fill-opacity:1;stroke:none"
       sodipodi:type="arc" />
    <path
       transform="matrix(1.0028595,0,0,1.0028595,2.4439698,0.3866541)"
       d="m -0.69207271,0.18117914 c 0,0.0184832 -0.0149836,0.0334668 -0.0334668,0.0334668 -0.0184832,0 -0.0334668,-0.0149836 -0.0334668,-0.0334668 0,-0.0184832 0.0149836,-0.0334668 0.0334668,-0.0334668 0.0184832,0 0.0334668,0.0149836 0.0334668,0.0334668 z"
       sodipodi:ry="0.033466794"
       sodipodi:rx="0.033466794"
       sodipodi:cy="0.18117914"
       sodipodi:cx="-0.72553951"
       id="path4815"
       style="fill:#000000;fill-opacity:1;stroke:none"
       sodipodi:type="arc" />
    <path
       transform="matrix(1.0028595,0,0,1.0028595,0.3086215,0.04747809)"
       d="m -0.69207271,0.18117914 c 0,0.0184832 -0.0149836,0.0334668 -0.0334668,0.0334668 -0.0184832,0 -0.0334668,-0.0149836 -0.0334668,-0.0334668 0,-0.0184832 0.0149836,-0.0334668 0.0334668,-0.0334668 0.0184832,0 0.0334668,0.0149836 0.0334668,0.0334668 z"
       sodipodi:ry="0.033466794"
       sodipodi:rx="0.033466794"
       sodipodi:cy="0.18117914"
       sodipodi:cx="-0.72553951"
       id="path4705"
       style="fill:#000000;fill-opacity:1;stroke:none"
       sodipodi:type="arc" />
    <path
       transform="matrix(1.0028595,0,0,1.0028595,0.169828,0.04747809)"
       d="m -0.69207271,0.18117914 c 0,0.0184832 -0.0149836,0.0334668 -0.0334668,0.0334668 -0.0184832,0 -0.0334668,-0.0149836 -0.0334668,-0.0334668 0,-0.0184832 0.0149836,-0.0334668 0.0334668,-0.0334668 0.0184832,0 0.0334668,0.0149836 0.0334668,0.0334668 z"
       sodipodi:ry="0.033466794"
       sodipodi:rx="0.033466794"
       sodipodi:cy="0.18117914"
       sodipodi:cx="-0.72553951"
       id="path4689"
       style="fill:#000000;fill-opacity:1;stroke:none"
       sodipodi:type="arc" />
    <path
       transform="matrix(1.0028595,0,0,1.0028595,0.08502993,0.04747809)"
       d="m -0.69207271,0.18117914 c 0,0.0184832 -0.0149836,0.0334668 -0.0334668,0.0334668 -0.0184832,0 -0.0334668,-0.0149836 -0.0334668,-0.0334668 0,-0.0184832 0.0149836,-0.0334668 0.0334668,-0.0334668 0.0184832,0 0.0334668,0.0149836 0.0334668,0.0334668 z"
       sodipodi:ry="0.033466794"
       sodipodi:rx="0.033466794"
       sodipodi:cy="0.18117914"
       sodipodi:cx="-0.72553951"
       id="path2469"
       style="fill:#000000;fill-opacity:1;stroke:none"
       sodipodi:type="arc" />
    <path
       transform="matrix(1.0028595,0,0,1.0028595,-0.08454982,0.13226)"
       d="m -0.69207271,0.18117914 c 0,0.0184832 -0.0149836,0.0334668 -0.0334668,0.0334668 -0.0184832,0 -0.0334668,-0.0149836 -0.0334668,-0.0334668 0,-0.0184832 0.0149836,-0.0334668 0.0334668,-0.0334668 0.0184832,0 0.0334668,0.0149836 0.0334668,0.0334668 z"
       sodipodi:ry="0.033466794"
       sodipodi:rx="0.033466794"
       sodipodi:cy="0.18117914"
       sodipodi:cx="-0.72553951"
       id="path4691"
       style="fill:#000000;fill-opacity:1;stroke:none"
       sodipodi:type="arc" />
    <path
       transform="matrix(1.0028595,0,0,1.0028595,2.0417028e-4,0.04751575)"
       d="m -0.69207271,0.18117914 c 0,0.0184832 -0.0149836,0.0334668 -0.0334668,0.0334668 -0.0184832,0 -0.0334668,-0.0149836 -0.0334668,-0.0334668 0,-0.0184832 0.0149836,-0.0334668 0.0334668,-0.0334668 0.0184832,0 0.0334668,0.0149836 0.0334668,0.0334668 z"
       sodipodi:ry="0.033466794"
       sodipodi:rx="0.033466794"
       sodipodi:cy="0.18117914"
       sodipodi:cx="-0.72553951"
       id="path2467"
       style="fill:#000000;fill-opacity:1;stroke:none"
       sodipodi:type="arc" />
    <g
       id="g9050">
      <path
         style="font-style:normal;font-variant:normal;font-weight:normal;font-stretch:normal;letter-spacing:normal;word-spacing:normal;text-anchor:start;fill:#00aeef;fill-opacity:1;fill-rule:nonzero;stroke:#00ffff;stroke-width:0;stroke-linecap:butt;stroke-linejoin:miter;stroke-miterlimit:10.43299961;stroke-opacity:1;stroke-dasharray:none;stroke-dashoffset:0"
         id="path2684"
         d="m 0.72431444,0.69205102 0.0138356,0 0,0.042041 c 0.003236,-0.004143 0.00623,-0.007047 0.008819,-0.008754 0.00445,-0.002913 0.0100329,-0.004361 0.0166675,-0.004361 0.0118938,0 0.0199848,0.004167 0.0241921,0.0124844 0.002266,0.004547 0.003479,0.0108662 0.003479,0.0189573 l 0,0.0526573 -0.0142402,0 0,-0.0517349 c 0,-0.006044 -7.2819e-4,-0.0104617 -0.002265,-0.0132774 -0.002508,-0.004491 -0.007201,-0.006764 -0.0141593,-0.006764 -0.005664,0 -0.010842,0.00199 -0.0155348,0.005906 -0.004612,0.003957 -0.006958,0.0113841 -0.006958,0.0223175 l 0,0.0435524 -0.0138356,0 0,-0.11302444 z" />
      <path
         style="font-style:normal;font-variant:normal;font-weight:normal;font-stretch:normal;letter-spacing:normal;word-spacing:normal;text-anchor:start;fill:#00aeef;fill-opacity:1;fill-rule:nonzero;stroke:#00ffff;stroke-width:0;stroke-linecap:butt;stroke-linejoin:miter;stroke-miterlimit:10.43299961;stroke-opacity:1;stroke-dasharray:none;stroke-dashoffset:0"
         d="m 0.84987878,0.7208764 c -0.008334,0 -0.0155349,0.00212 -0.0218459,0.006068 -0.006311,0.003981 -0.009669,0.0110605 -0.009912,0.0212391 l 0.0127435,0 c 5.6631e-4,-0.004264 0.00174,-0.007565 0.003439,-0.009709 0.002994,-0.003924 0.00797,-0.005866 0.0151708,-0.005866 0.00623,0 0.0111657,0.001092 0.0145639,0.003236 0.003236,0.00212 0.004855,0.005575 0.004855,0.0103161 0,0.002306 -1.6189e-4,0.004029 -8.0911e-4,0.005259 l -2.0228e-4,2.0227e-4 -2.0228e-4,2.0228e-4 0,2.0228e-4 -2.0227e-4,2.0228e-4 0,2.0227e-4 -2.0228e-4,2.0228e-4 -2.0228e-4,2.0228e-4 -2.0228e-4,2.0227e-4 -2.0227e-4,2.0228e-4 -2.0228e-4,2.0228e-4 0,2.0227e-4 -4.0455e-4,0 0,2.0228e-4 -2.0228e-4,2.0228e-4 -2.0228e-4,0 -2.0227e-4,2.0228e-4 -2.0228e-4,0 -2.0228e-4,2.0227e-4 -2.0228e-4,0 -4.0455e-4,2.0228e-4 -2.0228e-4,0 -2.0227e-4,2.0228e-4 -2.0228e-4,0 -2.0228e-4,2.0227e-4 -4.0455e-4,0 -2.0228e-4,0 -2.0228e-4,2.0228e-4 -4.0455e-4,0 -2.0228e-4,0 -2.0227e-4,0 -4.0456e-4,2.0228e-4 -0.0218459,0.00263 c -0.007767,9.798e-4 -0.0140381,0.003514 -0.0188118,0.007687 -0.004693,0.004203 -0.00708,0.0102151 -0.00708,0.0178004 0,0.006953 0.002427,0.0127816 0.007282,0.0173958 0.004774,0.004614 0.0110038,0.006877 0.0186095,0.006877 0.006392,0 0.0121367,-0.001328 0.0173958,-0.004046 0.00534,-0.002719 0.009305,-0.005841 0.0121366,-0.009507 4.8546e-4,0.003255 0.001295,0.005682 0.002427,0.007484 0.002104,0.003381 0.005542,0.005057 0.0103161,0.005057 0.001861,0 0.003317,-4.369e-5 0.00445,-2.0228e-4 0.001133,-1.578e-4 0.002953,-5.8171e-4 0.005057,-0.001214 l 0,-0.0101138 c -8.9009e-4,1.5781e-4 -0.001618,1.391e-4 -0.002427,2.0228e-4 -8.0904e-4,9.547e-5 -0.001578,2.0221e-4 -0.002225,2.0227e-4 -0.001861,0 -0.003075,-3.2856e-4 -0.003641,-0.001214 -5.6631e-4,-8.5358e-4 -0.001011,-0.002016 -0.001011,-0.003439 l 0,-0.0473328 c 0,-0.007775 -0.002913,-0.0135283 -0.0089,-0.0171936 -0.005987,-0.003698 -0.0138358,-0.005664 -0.0234641,-0.005664 z m 0.0186095,0.0424782 0,0.0111252 c 0,0.00847 -0.003722,0.0144758 -0.0113275,0.0182049 -0.004612,0.002244 -0.009305,0.003439 -0.0141594,0.003439 l -8.0911e-4,0 -8.091e-4,0 -6.0684e-4,-2.0228e-4 -8.091e-4,0 -6.0684e-4,-2.0228e-4 -6.0683e-4,-2.0227e-4 -8.091e-4,0 -6.0684e-4,-2.0228e-4 -6.0683e-4,-2.0228e-4 -6.0683e-4,-4.0455e-4 -6.0683e-4,-2.0228e-4 -6.0683e-4,-4.0455e-4 -6.0683e-4,-2.0228e-4 -6.0683e-4,-4.0455e-4 -6.0683e-4,-4.0456e-4 -6.0684e-4,-4.0455e-4 c -0.002913,-0.002276 -0.004248,-0.005525 -0.004248,-0.009507 0,-0.005278 0.002063,-0.008957 0.006271,-0.0113275 0.002589,-0.001422 0.006311,-0.002573 0.0113275,-0.003236 l 0.008496,-0.001011 c 0.002508,-2.848e-4 0.005098,-8.9073e-4 0.007687,-0.001618 0.00267,-7.2658e-4 0.004774,-0.001555 0.006473,-0.00263 z"
         id="path2688" />
      <path
         style="font-style:normal;font-variant:normal;font-weight:normal;font-stretch:normal;letter-spacing:normal;word-spacing:normal;text-anchor:start;fill:#00aeef;fill-opacity:1;fill-rule:nonzero;stroke:#00ffff;stroke-width:0;stroke-linecap:butt;stroke-linejoin:miter;stroke-miterlimit:10.43299961;stroke-opacity:1;stroke-dasharray:none;stroke-dashoffset:0"
         id="path2690"
         d="m 0.96518443,0.72732793 5.6634e-4,4.2881e-4 4.8548e-4,4.5309e-4 4.8543e-4,4.6931e-4 5.6639e-4,4.9354e-4 4.8548e-4,5.0972e-4 4.0453e-4,5.2593e-4 4.8548e-4,5.5017e-4 4.0452e-4,5.5832e-4 4.8549e-4,5.9062e-4 4.0452e-4,5.9873e-4 4.0458e-4,6.2301e-4 4.0453e-4,6.3919e-4 3.2367e-4,6.6346e-4 4.0452e-4,6.7968e-4 3.2367e-4,6.9581e-4 3.2363e-4,7.1202e-4 3.2366e-4,7.3626e-4 3.2363e-4,7.6059e-4 2.4271e-4,7.6865e-4 3.2367e-4,7.9289e-4 2.4272e-4,8.091e-4 2.4272e-4,8.3338e-4 2.4276e-4,8.4956e-4 2.4272e-4,8.6577e-4 2.4271e-4,8.819e-4 1.6182e-4,9.0618e-4 1.6185e-4,9.3047e-4 1.6182e-4,9.3857e-4 1.6181e-4,9.6285e-4 1.6181e-4,9.7902e-4 1.6181e-4,0.001003 8.095e-5,0.001019 -0.0134311,0 c -8.091e-4,-0.005057 -0.00267,-0.009264 -0.005583,-0.0126139 -0.002913,-0.00335 -0.007606,-0.005025 -0.0139975,-0.005025 -0.008819,0 -0.0151302,0.004296 -0.0188521,0.0128971 -0.002427,0.005559 -0.003722,0.0124205 -0.003722,0.0205747 0,0.008217 0.00178,0.0151391 0.005259,0.0207648 0.003479,0.005594 0.0089,0.008407 0.0163439,0.008407 0.005745,0 0.0102756,-0.001738 0.0135929,-0.005215 0.003398,-0.003477 0.005745,-0.00828 0.006958,-0.0143486 l 0.0134311,0 c -0.001537,0.0109035 -0.00534,0.0188683 -0.0114893,0.0238936 -0.006149,0.005057 -0.0139975,0.007554 -0.0235449,0.007554 -0.0106801,0 -0.0192567,-0.003919 -0.0256485,-0.0117571 -0.006392,-0.007839 -0.009628,-0.0176676 -0.009628,-0.0293931 0,-0.0144117 0.00356,-0.0256663 0.0105183,-0.0336603 0.007039,-0.008026 0.0159393,-0.0120395 0.0267813,-0.0120395 0.009224,0 0.0167484,0.002241 0.022574,0.006732 z" />
      <polygon
         style="font-style:normal;font-variant:normal;font-weight:normal;font-stretch:normal;letter-spacing:normal;word-spacing:normal;text-anchor:start;fill:#00aeef;fill-opacity:1;fill-rule:nonzero;stroke:#00ffff;stroke-width:0;stroke-linecap:butt;stroke-linejoin:miter;stroke-miterlimit:10.43299961;stroke-opacity:1;stroke-dasharray:none;stroke-dashoffset:0"
         id="polygon2692"
         points="227.66,4.0469 227.66,17.969 227.66,17.969 229.3,17.969 229.3,9.8867 233.67,14.195 235.85,14.195 231.95,10.422 236.07,4.0469 233.89,4.0469 230.7,9.2109 229.3,7.8555 229.3,4.0469 "
         transform="matrix(0.00809103,0,0,-0.00809103,-0.8468828,0.837819)" />
      <path
         style="font-style:normal;font-variant:normal;font-weight:normal;font-stretch:normal;letter-spacing:normal;word-spacing:normal;text-anchor:start;fill:#00aeef;fill-opacity:1;fill-rule:nonzero;stroke:#00ffff;stroke-width:0;stroke-linecap:butt;stroke-linejoin:miter;stroke-miterlimit:10.43299961;stroke-opacity:1;stroke-dasharray:none;stroke-dashoffset:0"
         d="m 1.1136481,0.72107868 c -0.011408,0 -0.020592,0.004118 -0.027712,0.0123389 -0.00712,0.008245 -0.010721,0.0189801 -0.010721,0.032162 0,0.0134012 0.00348,0.0237231 0.010518,0.0311507 0.00704,0.007459 0.015697,0.0113276 0.025891,0.0113275 0.00413,0 0.00789,-4.2397e-4 0.011125,-0.001214 0.00615,-0.001454 0.011449,-0.004216 0.015575,-0.008293 0.00251,-0.00237 0.00465,-0.005404 0.00668,-0.009102 0.00202,-0.003698 0.00332,-0.007111 0.00364,-0.0101138 l -0.013553,0 c -9.709e-4,0.003667 -0.00283,0.006928 -0.00526,0.009709 -0.00421,0.004773 -0.00987,0.00708 -0.016991,0.00708 -0.00769,0 -0.01335,-0.002427 -0.016991,-0.007484 -0.00364,-0.005057 -0.00562,-0.0118528 -0.00587,-0.0202277 l 0.059672,0 c 0,-0.008281 -4.046e-4,-0.0142162 -0.00121,-0.0180027 -8.9e-4,-0.005534 -0.00271,-0.0104214 -0.00546,-0.0145639 L 1.1423714,0.7350358 1.1419669,0.73422669 1.14136,0.73341758 1.1407532,0.73281075 1.1399441,0.73200164 1.1393373,0.73139481 1.1385281,0.7305857 1.137719,0.72997887 1.1371122,0.72937204 1.1361022,0.72856293 1.1352931,0.7279561 1.134484,0.72734927 1.133474,0.72694471 1.1326649,0.72633788 1.1316549,0.72573105 1.1306449,0.7253265 c -0.0055,-0.002751 -0.011166,-0.004248 -0.016991,-0.004248 z M 1.112839,0.7332153 c 0.00874,0 0.015009,0.003277 0.018812,0.009912 l 4.046e-4,6.0683e-4 4.045e-4,8.0911e-4 2.023e-4,8.0911e-4 4.046e-4,6.0683e-4 4.045e-4,8.091e-4 2.023e-4,8.0911e-4 2.023e-4,0.001011 4.045e-4,8.0911e-4 2.023e-4,0.001011 2.023e-4,8.0911e-4 2.023e-4,0.001011 2.022e-4,0.001011 0,0.001011 2.023e-4,0.001011 2.023e-4,0.001011 0,0.001214 -0.045108,0 c 2.427e-4,-0.007082 0.00239,-0.0128406 0.00668,-0.0173958 0.00429,-0.00458 0.00947,-0.006877 0.015778,-0.006877 z"
         id="path2696" />
      <path
         style="font-style:normal;font-variant:normal;font-weight:normal;font-stretch:normal;letter-spacing:normal;word-spacing:normal;text-anchor:start;fill:#00aeef;fill-opacity:1;fill-rule:nonzero;stroke:#00ffff;stroke-width:0;stroke-linecap:butt;stroke-linejoin:miter;stroke-miterlimit:10.43299961;stroke-opacity:1;stroke-dasharray:none;stroke-dashoffset:0"
         id="path2698"
         d="m 1.1735284,0.72296686 0.013188,0 0,0.0141917 c 0.00105,-0.002783 0.00364,-0.006133 0.00785,-0.0100895 0.00421,-0.003981 0.00906,-0.005939 0.014483,-0.005939 3.236e-4,0 7.282e-4,3.234e-5 0.00138,6.468e-5 5.663e-4,6.474e-5 0.00162,1.6186e-4 0.00307,3.1556e-4 l 0,0.014572 c -8.09e-4,-1.6181e-4 -0.00154,-2.5894e-4 -0.00227,-3.1556e-4 -6.473e-4,-3.235e-5 -0.00138,-6.474e-5 -0.00227,-6.474e-5 -0.00696,0 -0.012298,0.002241 -0.01602,0.006699 -0.00372,0.004458 -0.00558,0.009604 -0.00558,0.0154555 l 0,0.0472185 -0.013836,0 0,-0.0821086 z" />
      <path
         style="font-style:normal;font-variant:normal;font-weight:normal;font-stretch:normal;letter-spacing:normal;word-spacing:normal;text-anchor:start;fill:#00aeef;fill-opacity:1;fill-rule:nonzero;stroke:#00ffff;stroke-width:0;stroke-linecap:butt;stroke-linejoin:miter;stroke-miterlimit:10.43299961;stroke-opacity:1;stroke-dasharray:none;stroke-dashoffset:0"
         id="path2700"
         d="m 1.2396322,0.77931685 8.09e-5,8.5277e-4 1.618e-4,8.2611e-4 8.09e-5,8.01e-4 1.618e-4,7.7512e-4 1.619e-4,7.4922e-4 1.618e-4,7.2419e-4 1.618e-4,6.9823e-4 2.427e-4,6.7316e-4 2.428e-4,6.4813e-4 2.427e-4,6.238e-4 2.427e-4,5.9794e-4 3.237e-4,5.7282e-4 2.427e-4,5.4858e-4 3.236e-4,5.2351e-4 3.237e-4,4.9918e-4 4.045e-4,4.7416e-4 c 0.00348,0.004457 0.00971,0.006669 0.018448,0.006669 0.00518,0 0.00979,-0.001106 0.013755,-0.00335 0.00396,-0.002213 0.00599,-0.005657 0.00599,-0.010304 0,-0.00354 -0.00162,-0.006194 -0.00477,-0.008059 -0.00202,-0.001107 -0.00607,-0.002434 -0.011975,-0.003888 l -0.011166,-0.002782 c -0.00712,-0.001738 -0.012379,-0.003666 -0.015778,-0.005815 -0.00599,-0.00373 -0.00898,-0.008882 -0.00898,-0.0154846 0,-0.007775 0.00283,-0.0140703 0.0085,-0.0188683 0.00566,-0.004806 0.013269,-0.007209 0.022898,-0.007209 0.01246,0 0.021522,0.003633 0.027105,0.0108743 0.00348,0.004612 0.0051,0.009572 0.00502,0.0148875 l -0.013027,0 c -2.427e-4,-0.003099 -0.00138,-0.005915 -0.00332,-0.008471 -0.00332,-0.0036 -0.0089,-0.005405 -0.01691,-0.005405 -0.00534,0 -0.00939,9.7903e-4 -0.012136,0.002969 -0.00275,0.00199 -0.00413,0.004612 -0.00413,0.007873 0,0.003568 0.00178,0.006416 0.00542,0.00856 0.0021,0.001262 0.00518,0.002403 0.00922,0.003382 l 0.0093,0.002215 c 0.010114,0.002401 0.016829,0.004709 0.020309,0.006984 0.00534,0.003508 0.00801,0.009071 0.00801,0.0166246 0,0.007301 -0.00275,0.0136221 -0.00841,0.0189322 -0.00558,0.005309 -0.014159,0.007996 -0.025648,0.007996 -0.012379,0 -0.021118,-0.002782 -0.026215,-0.008344 -0.00518,-0.005531 -0.00793,-0.0123898 -0.00833,-0.0205755 l 0.013269,0 z" />
      <path
         style="font-style:normal;font-variant:normal;font-weight:normal;font-stretch:normal;letter-spacing:normal;word-spacing:normal;text-anchor:start;fill:#00aeef;fill-opacity:1;fill-rule:nonzero;stroke:#00ffff;stroke-width:0;stroke-linecap:butt;stroke-linejoin:miter;stroke-miterlimit:10.43299961;stroke-opacity:1;stroke-dasharray:none;stroke-dashoffset:0"
         d="m 1.3537509,0.7208764 c -0.00631,0 -0.011773,0.001553 -0.016384,0.004652 -0.00332,0.002023 -0.00635,0.004936 -0.0091,0.008698 l 0,-0.010923 -0.013552,0 0,0.11448881 0.013755,0 0,-0.0418714 c 0.00307,0.003729 0.00587,0.00634 0.00829,0.007889 0.00421,0.002718 0.00935,0.004045 0.015575,0.004046 0.00793,0 0.014847,-0.002414 0.020834,-0.007282 0.00939,-0.00768 0.014159,-0.0205434 0.014159,-0.0384326 0,-0.0132466 -0.00324,-0.0233995 -0.00971,-0.0305438 -0.00655,-0.007112 -0.014564,-0.0107207 -0.023869,-0.0107207 z m -0.00324,0.0121366 c 0.00955,0 0.016182,0.004507 0.019823,0.0135526 0.00186,0.004701 0.00283,0.010449 0.00283,0.0169913 l 0,0.001011 0,0.001011 -2.022e-4,8.0911e-4 0,0.001011 0,0.001011 0,8.0911e-4 -2.023e-4,0.001011 0,8.0911e-4 -2.023e-4,8.0911e-4 0,0.001011 -2.023e-4,8.091e-4 -2.023e-4,8.0911e-4 0,8.0911e-4 -2.022e-4,8.0911e-4 -2.023e-4,8.0911e-4 -2.023e-4,8.091e-4 -2.023e-4,6.0684e-4 -2.022e-4,8.091e-4 -2.023e-4,6.0684e-4 -4.046e-4,8.091e-4 -2.022e-4,6.0683e-4 -2.023e-4,8.0911e-4 -4.046e-4,6.0683e-4 -2.023e-4,6.0684e-4 -4.045e-4,6.0683e-4 -2.023e-4,6.0683e-4 -4.045e-4,6.0683e-4 -4.046e-4,6.0683e-4 -2.023e-4,6.0683e-4 -4.045e-4,4.0456e-4 -4.046e-4,6.0683e-4 -4.045e-4,4.0455e-4 c -0.00437,0.005373 -0.00971,0.008091 -0.016182,0.008091 -0.00955,0 -0.016061,-0.004071 -0.019621,-0.0125412 -0.00186,-0.004457 -0.00283,-0.00983 -0.00283,-0.0161822 0,-0.00787 9.709e-4,-0.0144992 0.00283,-0.0196209 0.00348,-0.00958 0.010074,-0.0143617 0.019621,-0.0143617 z"
         id="path2704" />
      <path
         style="font-style:normal;font-variant:normal;font-weight:normal;font-stretch:normal;letter-spacing:normal;word-spacing:normal;text-anchor:start;fill:#00aeef;fill-opacity:1;fill-rule:nonzero;stroke:#00ffff;stroke-width:0;stroke-linecap:butt;stroke-linejoin:miter;stroke-miterlimit:10.43299961;stroke-opacity:1;stroke-dasharray:none;stroke-dashoffset:0"
         d="m 1.4413369,0.7208764 c -0.00825,0 -0.015535,0.00212 -0.021846,0.006068 -0.00623,0.003981 -0.00947,0.0110605 -0.00971,0.0212391 l 0.012743,0 c 4.855e-4,-0.004264 0.00162,-0.007565 0.00324,-0.009709 0.00307,-0.003924 0.00817,-0.005866 0.015373,-0.005866 0.00623,0 0.011044,0.001092 0.014362,0.003236 0.00332,0.00212 0.00506,0.005575 0.00506,0.0103161 0,0.002306 -4.451e-4,0.004029 -0.00101,0.005259 l 0,2.0227e-4 -2.022e-4,2.0228e-4 0,2.0228e-4 -2.023e-4,2.0228e-4 -2.023e-4,2.0227e-4 0,2.0228e-4 -2.023e-4,2.0228e-4 -2.022e-4,0 -2.023e-4,2.0227e-4 0,2.0228e-4 -2.023e-4,2.0228e-4 -2.023e-4,2.0227e-4 -2.023e-4,0 -2.022e-4,2.0228e-4 -2.023e-4,2.0228e-4 -2.023e-4,0 0,2.0228e-4 -4.045e-4,0 -2.023e-4,2.0227e-4 -2.023e-4,0 -2.023e-4,2.0228e-4 -2.022e-4,0 -2.023e-4,2.0228e-4 -2.023e-4,0 -4.046e-4,2.0227e-4 -2.022e-4,0 -2.023e-4,0 -4.046e-4,2.0228e-4 -2.022e-4,0 -2.023e-4,0 -4.046e-4,0 -2.023e-4,2.0228e-4 -0.022048,0.00263 c -0.00769,9.798e-4 -0.013836,0.003514 -0.018609,0.007687 -0.00477,0.004203 -0.00728,0.0102151 -0.00728,0.0178004 0,0.006953 0.00243,0.0127816 0.00728,0.0173958 0.00485,0.004614 0.011004,0.006877 0.018609,0.006877 0.00639,0 0.012137,-0.001328 0.017396,-0.004046 0.00526,-0.002719 0.0093,-0.005841 0.012137,-0.009507 4.046e-4,0.003255 0.00129,0.005682 0.00243,0.007484 0.00218,0.003381 0.00554,0.005057 0.010316,0.005057 0.00194,0 0.00352,-4.369e-5 0.00465,-2.0228e-4 0.00113,-1.578e-4 0.00275,-5.8171e-4 0.00485,-0.001214 l 0,-0.0101138 c -8.091e-4,1.5781e-4 -0.00162,1.391e-4 -0.00243,2.0228e-4 -7.282e-4,9.547e-5 -0.00146,2.0221e-4 -0.00202,2.0227e-4 -0.00194,0 -0.00307,-3.2856e-4 -0.00364,-0.001214 -5.663e-4,-8.5358e-4 -0.00101,-0.002016 -0.00101,-0.003439 l 0,-0.0473328 c 0,-0.007775 -0.00291,-0.0135283 -0.0089,-0.0171936 -0.00607,-0.003698 -0.013957,-0.005664 -0.023666,-0.005664 z m 0.018812,0.0424782 0,0.0111252 c 0,0.00847 -0.00384,0.0144758 -0.01153,0.0182049 -0.00453,0.002244 -0.0093,0.003439 -0.014159,0.003439 l -6.068e-4,0 -8.092e-4,0 -6.068e-4,-2.0228e-4 -8.091e-4,0 -6.068e-4,-2.0228e-4 -8.091e-4,-2.0227e-4 -6.069e-4,0 L 1.428998,0.79531436 1.4283912,0.79511208 1.4275821,0.79470753 1.4271775,0.79450525 1.4263684,0.7941007 1.4259638,0.79389842 1.425357,0.79349387 1.4247502,0.79308931 1.4241434,0.79268476 c -0.00291,-0.002276 -0.00425,-0.005525 -0.00425,-0.009507 0,-0.005278 0.00198,-0.008957 0.00627,-0.0113275 0.00251,-0.001422 0.00631,-0.002573 0.011327,-0.003236 l 0.00829,-0.001011 c 0.00259,-2.848e-4 0.00522,-8.9073e-4 0.00789,-0.001618 0.00267,-7.2658e-4 0.00485,-0.001555 0.00647,-0.00263 z"
         id="path2708" />
      <path
         style="font-style:normal;font-variant:normal;font-weight:normal;font-stretch:normal;letter-spacing:normal;word-spacing:normal;text-anchor:start;fill:#00aeef;fill-opacity:1;fill-rule:nonzero;stroke:#00ffff;stroke-width:0;stroke-linecap:butt;stroke-linejoin:miter;stroke-miterlimit:10.43299961;stroke-opacity:1;stroke-dasharray:none;stroke-dashoffset:0"
         id="path2710"
         d="m 1.5567197,0.72732793 5.663e-4,4.2881e-4 4.855e-4,4.5309e-4 5.664e-4,4.6931e-4 4.854e-4,4.9354e-4 4.855e-4,5.0972e-4 4.854e-4,5.2593e-4 4.046e-4,5.5017e-4 4.855e-4,5.5832e-4 4.045e-4,5.9062e-4 4.046e-4,5.9873e-4 4.045e-4,6.2301e-4 4.046e-4,6.3919e-4 4.045e-4,6.6346e-4 3.237e-4,6.7968e-4 3.236e-4,6.9581e-4 3.236e-4,7.1202e-4 3.237e-4,7.3626e-4 3.236e-4,7.6059e-4 3.236e-4,7.6865e-4 2.428e-4,7.9289e-4 3.236e-4,8.091e-4 2.428e-4,8.3338e-4 2.427e-4,8.4956e-4 1.618e-4,8.6577e-4 2.427e-4,8.819e-4 2.428e-4,9.0618e-4 1.618e-4,9.3047e-4 1.618e-4,9.3857e-4 1.618e-4,9.6285e-4 1.618e-4,9.7902e-4 8.1e-5,0.001003 1.618e-4,0.001019 -0.013431,0 c -8.091e-4,-0.005057 -0.00267,-0.009264 -0.00558,-0.0126139 -0.00291,-0.00335 -0.00761,-0.005025 -0.013998,-0.005025 -0.00882,0 -0.01513,0.004296 -0.018933,0.0128971 -0.00243,0.005559 -0.00364,0.0124205 -0.00364,0.0205747 0,0.008217 0.0017,0.0151391 0.00518,0.0207648 0.00348,0.005594 0.00898,0.008407 0.016425,0.008407 0.00574,0 0.010276,-0.001738 0.013593,-0.005215 0.0034,-0.003477 0.00566,-0.00828 0.00696,-0.0143486 l 0.013431,0 c -0.00154,0.0109035 -0.00542,0.0188683 -0.011489,0.0238936 -0.00615,0.005057 -0.013998,0.007554 -0.023545,0.007554 -0.010761,0 -0.019338,-0.003919 -0.025729,-0.0117571 -0.00639,-0.007839 -0.00955,-0.0176676 -0.00955,-0.0293931 0,-0.0144117 0.00348,-0.0256663 0.010518,-0.0336603 0.00696,-0.008026 0.015939,-0.0120395 0.026781,-0.0120395 0.00922,0 0.016748,0.002241 0.022493,0.006732 z" />
      <path
         style="font-style:normal;font-variant:normal;font-weight:normal;font-stretch:normal;letter-spacing:normal;word-spacing:normal;text-anchor:start;fill:#00aeef;fill-opacity:1;fill-rule:nonzero;stroke:#00ffff;stroke-width:0;stroke-linecap:butt;stroke-linejoin:miter;stroke-miterlimit:10.43299961;stroke-opacity:1;stroke-dasharray:none;stroke-dashoffset:0"
         d="m 1.6209589,0.72107868 c -0.011489,0 -0.020794,0.004118 -0.027914,0.0123389 -0.00712,0.008245 -0.010721,0.0189801 -0.010721,0.032162 0,0.0134012 0.00348,0.0237231 0.010518,0.0311507 0.00704,0.007459 0.015778,0.0113276 0.025891,0.0113275 0.00421,0 0.00781,-4.2397e-4 0.011125,-0.001214 0.00615,-0.001454 0.011368,-0.004216 0.015575,-0.008293 0.00251,-0.00237 0.00465,-0.005404 0.00668,-0.009102 0.00202,-0.003698 0.00332,-0.007111 0.00364,-0.0101138 l -0.013755,0 c -9.709e-4,0.003667 -0.00251,0.006928 -0.00485,0.009709 -0.00429,0.004773 -0.00999,0.00708 -0.017194,0.00708 -0.00761,0 -0.01335,-0.002427 -0.016991,-0.007484 -0.00364,-0.005057 -0.00562,-0.0118528 -0.00587,-0.0202277 l 0.059874,0 c 0,-0.008281 -6.068e-4,-0.0142162 -0.00142,-0.0180027 -8.9e-4,-0.005534 -0.00279,-0.0104214 -0.00546,-0.0145639 l -4.045e-4,-8.091e-4 -6.069e-4,-8.0911e-4 -6.068e-4,-8.0911e-4 -8.091e-4,-6.0683e-4 -6.068e-4,-8.0911e-4 -6.069e-4,-6.0683e-4 -8.091e-4,-8.0911e-4 -8.091e-4,-6.0683e-4 -8.091e-4,-6.0683e-4 -8.091e-4,-8.0911e-4 -8.091e-4,-6.0683e-4 -8.091e-4,-6.0683e-4 -0.00101,-4.0456e-4 -8.091e-4,-6.0683e-4 -0.00101,-6.0683e-4 -0.00101,-4.0455e-4 c -0.00542,-0.002751 -0.011044,-0.004248 -0.016789,-0.004248 z m -0.00101,0.0121366 c 0.00882,0 0.01509,0.003277 0.018812,0.009912 l 4.046e-4,6.0683e-4 4.045e-4,8.0911e-4 2.023e-4,8.0911e-4 4.046e-4,6.0683e-4 2.022e-4,8.091e-4 4.046e-4,8.0911e-4 2.023e-4,0.001011 2.022e-4,8.0911e-4 4.046e-4,0.001011 2.023e-4,8.0911e-4 2.022e-4,0.001011 0,0.001011 2.023e-4,0.001011 2.023e-4,0.001011 2.023e-4,0.001011 0,0.001214 -0.045108,0 c 2.427e-4,-0.007082 0.00239,-0.0128406 0.00668,-0.0173958 0.00421,-0.00458 0.00947,-0.006877 0.015778,-0.006877 z"
         id="path2714" />
      <polygon
         style="font-style:normal;font-variant:normal;font-weight:normal;font-stretch:normal;letter-spacing:normal;word-spacing:normal;text-anchor:start;fill:#00aeef;fill-opacity:1;fill-rule:nonzero;stroke:#00ffff;stroke-width:0;stroke-linecap:butt;stroke-linejoin:miter;stroke-miterlimit:10.43299961;stroke-opacity:1;stroke-dasharray:none;stroke-dashoffset:0"
         id="polygon2716"
         points="314.73,4.0469 314.73,6.1133 312.75,6.1133 312.75,4.0469 312.75,4.0469 "
         transform="matrix(0.00809103,0,0,-0.00809103,-0.8468828,0.837819)" />
      <polygon
         style="font-style:normal;font-variant:normal;font-weight:normal;font-stretch:normal;letter-spacing:normal;word-spacing:normal;text-anchor:start;fill:#00aeef;fill-opacity:1;fill-rule:nonzero;stroke:#00ffff;stroke-width:0;stroke-linecap:butt;stroke-linejoin:miter;stroke-miterlimit:10.43299961;stroke-opacity:1;stroke-dasharray:none;stroke-dashoffset:0"
         id="polygon2718"
         points="320.23,4.0469 320.23,17.969 318.52,17.969 318.52,4.0469 318.52,4.0469 "
         transform="matrix(0.00809103,0,0,-0.00809103,-0.8468828,0.837819)" />
      <path
         style="font-style:normal;font-variant:normal;font-weight:normal;font-stretch:normal;letter-spacing:normal;word-spacing:normal;text-anchor:start;fill:#00aeef;fill-opacity:1;fill-rule:nonzero;stroke:#00ffff;stroke-width:0;stroke-linecap:butt;stroke-linejoin:miter;stroke-miterlimit:10.43299961;stroke-opacity:1;stroke-dasharray:none;stroke-dashoffset:0"
         id="path2720"
         d="m 1.7845631,0.72296686 0,0.0545174 c 0,0.004172 5.663e-4,0.007617 0.00194,0.0102716 0.00235,0.004899 0.0068,0.007364 0.01335,0.007364 0.0093,0 0.015697,-0.004299 0.019095,-0.0128955 0.00186,-0.004583 0.00275,-0.0109043 0.00275,-0.0189314 l 0,-0.0403265 0.013836,0 0,0.0821086 -0.013026,0 1.618e-4,-0.012105 c -0.00178,0.003097 -0.00396,0.005753 -0.00663,0.007902 -0.0051,0.004298 -0.011408,0.006448 -0.018771,0.006448 -0.011489,0 -0.019338,-0.003919 -0.023464,-0.0117579 -0.00227,-0.004172 -0.0034,-0.009766 -0.0034,-0.0167824 l 0,-0.0558127 0.014159,0 z" />
    </g>
  </g>
</svg>
